<svg version="1.1" xmlns="http://www.w3.org/2000/svg" viewBox="0 0 578.6906236944833 509.769338606724"
  width="1736.0718710834499" height="1529.308015820172">
  <!-- svg-source:excalidraw -->


  <g stroke-linecap="round">
    <g transform="translate(121.7029829166786 472.99501980806764) rotate(0 -0.3706264792735965 -134.67505162821064)">
      <path d="M0 0 C-0.22 -79.15, -0.44 -158.29, -0.74 -269.35 M0 0 C-0.24 -86.23, -0.47 -172.46, -0.74 -269.35"
        stroke="#164791" stroke-width="1" fill="none"></path>
    </g>
    <g transform="translate(121.7029829166786 472.99501980806764) rotate(0 -0.3706264792735965 -134.67505162821064)">
      <path d="M-0.74 -269.35 L5.64 -255.77 L-7.04 -255.74 L-0.74 -269.35" stroke="none" stroke-width="0" fill="#164791"
        fill-rule="evenodd"></path>
      <path
        d="M-0.74 -269.35 C1.13 -265.36, 3.01 -261.37, 5.64 -255.77 M-0.74 -269.35 C1.3 -265, 3.34 -260.66, 5.64 -255.77 M5.64 -255.77 C2.76 -255.77, -0.11 -255.76, -7.04 -255.74 M5.64 -255.77 C0.74 -255.76, -4.15 -255.75, -7.04 -255.74 M-7.04 -255.74 C-4.68 -260.85, -2.31 -265.96, -0.74 -269.35 M-7.04 -255.74 C-5.51 -259.05, -3.98 -262.36, -0.74 -269.35 M-0.74 -269.35 C-0.74 -269.35, -0.74 -269.35, -0.74 -269.35 M-0.74 -269.35 C-0.74 -269.35, -0.74 -269.35, -0.74 -269.35"
        stroke="#164791" stroke-width="1" fill="none"></path>
    </g>
  </g>
  <mask></mask>
  <g stroke-linecap="round"
    transform="translate(158.75777534289864 57.073800336505315) rotate(0 63.997409390553 9.043112196491194)">
    <path
      d="M0 0 C41.46 0, 82.93 0, 127.99 0 M0 0 C36.81 0, 73.63 0, 127.99 0 M127.99 0 C127.99 6.83, 127.99 13.65, 127.99 18.09 M127.99 0 C127.99 7.09, 127.99 14.18, 127.99 18.09 M127.99 18.09 C101.32 18.09, 74.65 18.09, 0 18.09 M127.99 18.09 C89.52 18.09, 51.04 18.09, 0 18.09 M0 18.09 C0 11.13, 0 4.16, 0 0 M0 18.09 C0 13.28, 0 8.47, 0 0"
      stroke="transparent" stroke-width="1" fill="none"></path>
  </g>
  <g stroke-linecap="round"
    transform="translate(196.32147215909208 77.24689677483178) rotate(0 105.38703828987809 204.51346044372352)">
    <path d="M0 0 L210.77 0 L210.77 409.03 L0 409.03" stroke="none" stroke-width="0" fill="#f3f0ff"></path>
    <path
      d="M0 0 C64.24 0, 128.49 0, 210.77 0 M0 0 C82.92 0, 165.85 0, 210.77 0 M210.77 0 C210.77 101.12, 210.77 202.25, 210.77 409.03 M210.77 0 C210.77 103.22, 210.77 206.44, 210.77 409.03 M210.77 409.03 C139.45 409.03, 68.13 409.03, 0 409.03 M210.77 409.03 C161.62 409.03, 112.46 409.03, 0 409.03 M0 409.03 C0 298.59, 0 188.15, 0 0 M0 409.03 C0 312.21, 0 215.39, 0 0"
      stroke="#164791" stroke-width="2" fill="none"></path>
  </g>
  <g stroke-linecap="round">
    <g transform="translate(167.8008875393898 281.58593594528924) rotate(0 133.90762290958082 0)">
      <path d="M0 0 C66.19 0, 132.37 0, 267.82 0 M0 0 C78.86 0, 157.71 0, 267.82 0" stroke="#164791" stroke-width="4"
        fill="none"></path>
    </g>
  </g>
  <mask></mask>
  <g stroke-linecap="round">
    <g transform="translate(168.05342147864394 416.4284820309991) rotate(0 133.90762290958082 0)">
      <path d="M0 0 C107.06 0, 214.13 0, 267.82 0 M0 0 C58.53 0, 117.05 0, 267.82 0" stroke="#164791" stroke-width="2"
        fill="none"></path>
    </g>
  </g>
  <g stroke-linecap="round">
    <g transform="translate(168.05342147864394 446.4284820309991) rotate(0 133.90762290958082 0)">
      <path d="M0 0 C107.06 0, 214.13 0, 267.82 0 M0 0 C58.53 0, 117.05 0, 267.82 0" stroke="#164791" stroke-width="4"
        fill="none"></path>
    </g>
  </g>
  <mask></mask>
  <g stroke-linecap="round">
    <g stroke-opacity="0.3" fill-opacity="0.3"
      transform="translate(449.91292825443634 411.53993851498734) rotate(0 -3.9364766783783125 4.31137921917616)">
      <path
        d="M0 0 C0 0, 0 0, 0 0 M0 0 C0 0, 0 0, 0 0 M0 0 C-2.12 1.25, -4.24 2.51, -8.25 4.87 M0 0 C-3.22 1.9, -6.44 3.81, -8.25 4.87 M-8.25 4.87 C-6.44 5.66, -4.63 6.45, 0.37 8.62 M-8.25 4.87 C-6.51 5.63, -4.78 6.38, 0.37 8.62"
        stroke="#164791" stroke-width="2" fill="none"></path>
    </g>
  </g>
  <g stroke-linecap="round">
    <g stroke-opacity="0.3" fill-opacity="0.3"
      transform="translate(449.91292825443634 441.53993851498734) rotate(0 -3.9364766783783125 4.31137921917616)">
      <path
        d="M0 0 C0 0, 0 0, 0 0 M0 0 C0 0, 0 0, 0 0 M0 0 C-2.12 1.25, -4.24 2.51, -8.25 4.87 M0 0 C-3.22 1.9, -6.44 3.81, -8.25 4.87 M-8.25 4.87 C-6.44 5.66, -4.63 6.45, 0.37 8.62 M-8.25 4.87 C-6.51 5.63, -4.78 6.38, 0.37 8.62"
        stroke="#164791" stroke-width="2" fill="none"></path>
    </g>
  </g>
  <mask></mask>
  <g stroke-linecap="round">
    <g stroke-opacity="0.3" fill-opacity="0.3"
      transform="translate(451.5395850608711 276.2024603077853) rotate(0 -3.9364766783783125 4.31137921917616)">
      <path
        d="M0 0 C0 0, 0 0, 0 0 M0 0 C0 0, 0 0, 0 0 M0 0 C-1.83 1.08, -3.65 2.16, -8.25 4.87 M0 0 C-2.52 1.49, -5.04 2.98, -8.25 4.87 M-8.25 4.87 C-5.33 6.14, -2.4 7.41, 0.37 8.62 M-8.25 4.87 C-5.49 6.07, -2.73 7.27, 0.37 8.62"
        stroke="#164791" stroke-width="2" fill="none"></path>
    </g>
  </g>
  <mask></mask>
  <g transform="translate(466.0406221686044 257.85210646972376) rotate(0 51.32500076293945 22.00206008858973)"><text
      x="51.32500076293945" y="10.279362473389128" font-family="Virgil, Segoe UI Emoji" font-size="11.734432047247862px"
      fill="#343a40" text-anchor="middle" style="white-space: pre;" direction="ltr"
      dominant-baseline="alphabetic">Niveau nécessaire</text><text x="51.32500076293945" y="24.947402532448955"
      font-family="Virgil, Segoe UI Emoji" font-size="11.734432047247862px" fill="#343a40" text-anchor="middle"
      style="white-space: pre;" direction="ltr" dominant-baseline="alphabetic">pour la pratique</text><text
      x="51.32500076293945" y="39.61544259150878" font-family="Virgil, Segoe UI Emoji" font-size="11.734432047247862px"
      fill="#343a40" text-anchor="middle" style="white-space: pre;" direction="ltr" dominant-baseline="alphabetic">A11Y numérique</text></g>
  <g transform="translate(215.87962537152816 10) rotate(0 86.01667022705078 28.6973805445339)"><text
      x="86.01667022705078" y="20.111124285609357" font-family="Virgil, Segoe UI Emoji" font-size="22.95790443562712px"
      fill="#343a40" text-anchor="middle" style="white-space: pre;" direction="ltr"
      dominant-baseline="alphabetic">Alphabétisation</text><text x="86.01667022705078" y="48.80850483014326"
      font-family="Virgil, Segoe UI Emoji" font-size="22.95790443562712px" fill="#343a40" text-anchor="middle"
      style="white-space: pre;" direction="ltr" dominant-baseline="alphabetic">Numérique</text></g>
  <g transform="translate(480.8197425985227 408.29673252434173) rotate(0 41.099998474121094 7.33402002952991)"><text
      x="41.099998474121094" y="10.279362473389128" font-family="Virgil, Segoe UI Emoji"
      font-size="11.734432047247862px" fill="#343a40" text-anchor="middle" style="white-space: pre;" direction="ltr"
      dominant-baseline="alphabetic">Niveau mesuré (Ex.)</text></g>
  <g transform="translate(463.8197425985227 438.29673252434173) rotate(0 41.099998474121094 7.33402002952991)"><text
      x="41.099998474121094" y="10.279362473389128" font-family="Virgil, Segoe UI Emoji"
      font-size="11.734432047247862px" fill="#343a40" text-anchor="middle" style="white-space: pre;" direction="ltr"
      dominant-baseline="alphabetic">Niveau minimal</text></g>
  <g transform="translate(10 371.59779613590825) rotate(0 50.56666564941406 22.00206008858973)"><text
      x="50.56666564941406" y="10.279362473389128" font-family="Virgil, Segoe UI Emoji" font-size="11.734432047247862px"
      fill="#343a40" text-anchor="middle" style="white-space: pre;" direction="ltr"
      dominant-baseline="alphabetic">Garant </text><text x="50.56666564941406" y="24.947402532448955"
      font-family="Virgil, Segoe UI Emoji" font-size="11.734432047247862px" fill="#343a40" text-anchor="middle"
      style="white-space: pre;" direction="ltr" dominant-baseline="alphabetic">d'un niveau global</text><text
      x="50.56666564941406" y="39.61544259150878" font-family="Virgil, Segoe UI Emoji" font-size="11.734432047247862px"
      fill="#343a40" text-anchor="middle" style="white-space: pre;" direction="ltr"
      dominant-baseline="alphabetic">permanent</text></g>
  <g stroke-linecap="round"
    transform="translate(217.84736597269966 122.96821973573554) rotate(0 45.29640637956618 16.9016248343399)">
    <path d="M0 0 L90.59 0 L90.59 33.8 L0 33.8" stroke="none" stroke-width="0" fill="#164791"></path>
    <path
      d="M0 0 C33.41 0, 66.82 0, 90.59 0 M0 0 C31.08 0, 62.17 0, 90.59 0 M90.59 0 C90.59 11.8, 90.59 23.59, 90.59 33.8 M90.59 0 C90.59 12.15, 90.59 24.31, 90.59 33.8 M90.59 33.8 C62.31 33.8, 34.02 33.8, 0 33.8 M90.59 33.8 C72.05 33.8, 53.5 33.8, 0 33.8 M0 33.8 C0 26.37, 0 18.94, 0 0 M0 33.8 C0 26.99, 0 20.18, 0 0"
      stroke="#ffffff" stroke-width="2" fill="none"></path>
  </g>
  <g transform="translate(226.51043723874045 129.86984457007543) rotate(0 36.63333511352539 10)"><text
      x="36.63333511352539" y="14.016" font-family="Virgil, Segoe UI Emoji" font-size="16px" fill="#ffffff"
      text-anchor="middle" style="white-space: pre;" direction="ltr" dominant-baseline="alphabetic">Expertise</text></g>
  <g stroke-linecap="round"
    transform="translate(235.58135180478985 182.4494377587922) rotate(0 47.376443686243874 16.784187774910194)">
    <path d="M0 0 L94.75 0 L94.75 33.57 L0 33.57" stroke="none" stroke-width="0" fill="#164791"></path>
    <path
      d="M0 0 C36.39 0, 72.77 0, 94.75 0 M0 0 C22.71 0, 45.42 0, 94.75 0 M94.75 0 C94.75 11.47, 94.75 22.95, 94.75 33.57 M94.75 0 C94.75 11.25, 94.75 22.5, 94.75 33.57 M94.75 33.57 C66.41 33.57, 38.07 33.57, 0 33.57 M94.75 33.57 C59.62 33.57, 24.48 33.57, 0 33.57 M0 33.57 C0 26.75, 0 19.93, 0 0 M0 33.57 C0 23.34, 0 13.12, 0 0"
      stroke="#ffffff" stroke-width="2" fill="none"></path>
  </g>
  <g transform="translate(242.87446342926614 189.23362553370237) rotate(0 40.08333206176758 10)"><text
      x="40.08333206176758" y="14.016" font-family="Virgil, Segoe UI Emoji" font-size="16px" fill="#ffffff"
      text-anchor="middle" style="white-space: pre;" direction="ltr" dominant-baseline="alphabetic">Conception</text>
  </g>
  <g stroke-linecap="round"
    transform="translate(209.03324576925024 261.4081283918854) rotate(0 64.96090979768223 19.828098202518007)">
    <path d="M0 0 L129.92 0 L129.92 39.66 L0 39.66" stroke="none" stroke-width="0" fill="#164791"></path>
    <path
      d="M0 0 C49.4 0, 98.79 0, 129.92 0 M0 0 C43.97 0, 87.93 0, 129.92 0 M129.92 0 C129.92 14.12, 129.92 28.25, 129.92 39.66 M129.92 0 C129.92 14.44, 129.92 28.89, 129.92 39.66 M129.92 39.66 C83.64 39.66, 37.35 39.66, 0 39.66 M129.92 39.66 C90.54 39.66, 51.16 39.66, 0 39.66 M0 39.66 C0 24.4, 0 9.15, 0 0 M0 39.66 C0 25.87, 0 12.09, 0 0"
      stroke="#ffffff" stroke-width="2" fill="none"></path>
  </g>
  <g transform="translate(224.18582121634608 271.2362265944034) rotate(0 49.80833435058594 10)"><text
      x="49.80833435058594" y="14.016" font-family="Virgil, Segoe UI Emoji" font-size="16px" fill="#ffffff"
      text-anchor="middle" style="white-space: pre;" direction="ltr" dominant-baseline="alphabetic">Participation</text>
  </g>
  <g stroke-linecap="round"
    transform="translate(337.2964103468039 217.96415329303673) rotate(0 30.826357934301086 16.784187774910222)">
    <path d="M0 0 L61.65 0 L61.65 33.57 L0 33.57" stroke="none" stroke-width="0" fill="#164791"></path>
    <path
      d="M0 0 C16.2 0, 32.4 0, 61.65 0 M0 0 C21.34 0, 42.69 0, 61.65 0 M61.65 0 C61.65 11.68, 61.65 23.35, 61.65 33.57 M61.65 0 C61.65 8.72, 61.65 17.43, 61.65 33.57 M61.65 33.57 C37.98 33.57, 14.31 33.57, 0 33.57 M61.65 33.57 C42.95 33.57, 24.24 33.57, 0 33.57 M0 33.57 C0 21.68, 0 9.79, 0 0 M0 33.57 C0 24.11, 0 14.65, 0 0"
      stroke="#ffffff" stroke-width="2" fill="none"></path>
  </g>
  <g transform="translate(351.031101105812 224.74834106794694) rotate(0 17.09166717529297 10)"><text
      x="17.09166717529297" y="14.016" font-family="Virgil, Segoe UI Emoji" font-size="16px" fill="#ffffff"
      text-anchor="middle" style="white-space: pre;" direction="ltr" dominant-baseline="alphabetic">Suivi</text></g>
  <g stroke-linecap="round"
    transform="translate(324.54004243788313 87.9780113078574) rotate(0 30.826357934301086 16.784187774910215)">
    <path d="M0 0 L61.65 0 L61.65 33.57 L0 33.57" stroke="none" stroke-width="0" fill="#164791"></path>
    <path
      d="M0 0 C21.32 0, 42.64 0, 61.65 0 M0 0 C24.62 0, 49.25 0, 61.65 0 M61.65 0 C61.65 7.71, 61.65 15.43, 61.65 33.57 M61.65 0 C61.65 10.8, 61.65 21.6, 61.65 33.57 M61.65 33.57 C40.47 33.57, 19.29 33.57, 0 33.57 M61.65 33.57 C44.13 33.57, 26.6 33.57, 0 33.57 M0 33.57 C0 23.47, 0 13.37, 0 0 M0 33.57 C0 22.83, 0 12.08, 0 0"
      stroke="#ffffff" stroke-width="2" fill="none"></path>
  </g>
  <g transform="translate(334.75806678453773 94.76219908276761) rotate(0 20.608333587646484 9.999999999999996)"><text
      x="20.608333587646484" y="14.016" font-family="Virgil, Segoe UI Emoji" font-size="16px" fill="#ffffff"
      text-anchor="middle" style="white-space: pre;" direction="ltr" dominant-baseline="alphabetic">Audit</text></g>
  <g stroke-linecap="round"
    transform="translate(208.94668234781602 334.12298028670546) rotate(0 55.696592912957385 17.818568134406632)">
    <path d="M0 0 L111.39 0 L111.39 35.64 L0 35.64" stroke="none" stroke-width="0" fill="#164791"></path>
    <path
      d="M0 0 C38.98 0, 77.97 0, 111.39 0 M0 0 C32.38 0, 64.76 0, 111.39 0 M111.39 0 C111.39 10.83, 111.39 21.66, 111.39 35.64 M111.39 0 C111.39 10.23, 111.39 20.46, 111.39 35.64 M111.39 35.64 C70.73 35.64, 30.06 35.64, 0 35.64 M111.39 35.64 C69.96 35.64, 28.52 35.64, 0 35.64 M0 35.64 C0 25.56, 0 15.47, 0 0 M0 35.64 C0 26.1, 0 16.56, 0 0"
      stroke="#ffffff" stroke-width="2" fill="none"></path>
  </g>
  <g transform="translate(224.5182752607734 341.9415484211121) rotate(0 40.125 10)"><text x="40.125" y="14.016"
      font-family="Virgil, Segoe UI Emoji" font-size="16px" fill="#ffffff" text-anchor="middle"
      style="white-space: pre;" direction="ltr" dominant-baseline="alphabetic">Diagnostic</text></g>
  <g stroke-linecap="round" transform="translate(35.77752574810529 306.8045753823129) rotate(0 25.293062600066605 27)">
    <path
      d="M50.59 27 C50.59 28.56, 50.46 30.15, 50.2 31.69 C49.95 33.23, 49.56 34.77, 49.06 36.23 C48.56 37.7, 47.93 39.15, 47.2 40.5 C46.47 41.85, 45.61 43.16, 44.67 44.36 C43.73 45.55, 42.67 46.68, 41.55 47.68 C40.43 48.69, 39.21 49.6, 37.94 50.38 C36.67 51.16, 35.32 51.84, 33.94 52.37 C32.57 52.91, 31.13 53.32, 29.69 53.59 C28.24 53.86, 26.76 54, 25.29 54 C23.83 54, 22.34 53.86, 20.9 53.59 C19.46 53.32, 18.02 52.91, 16.64 52.37 C15.27 51.84, 13.91 51.16, 12.65 50.38 C11.38 49.6, 10.16 48.69, 9.03 47.68 C7.91 46.68, 6.86 45.55, 5.92 44.36 C4.98 43.16, 4.12 41.85, 3.39 40.5 C2.66 39.15, 2.03 37.7, 1.53 36.23 C1.02 34.77, 0.64 33.23, 0.38 31.69 C0.13 30.15, 0 28.56, 0 27 C0 25.44, 0.13 23.85, 0.38 22.31 C0.64 20.77, 1.02 19.23, 1.53 17.77 C2.03 16.3, 2.66 14.85, 3.39 13.5 C4.12 12.15, 4.98 10.84, 5.92 9.64 C6.86 8.45, 7.91 7.32, 9.03 6.32 C10.16 5.31, 11.38 4.4, 12.65 3.62 C13.91 2.84, 15.27 2.16, 16.64 1.63 C18.02 1.09, 19.46 0.68, 20.9 0.41 C22.34 0.14, 23.83 0, 25.29 0 C26.76 0, 28.24 0.14, 29.69 0.41 C31.13 0.68, 32.57 1.09, 33.94 1.63 C35.32 2.16, 36.67 2.84, 37.94 3.62 C39.21 4.4, 40.43 5.31, 41.55 6.32 C42.67 7.32, 43.73 8.45, 44.67 9.64 C45.61 10.84, 46.47 12.15, 47.2 13.5 C47.93 14.85, 48.56 16.3, 49.06 17.77 C49.56 19.23, 49.95 20.77, 50.2 22.31 C50.46 23.85, 50.52 26.22, 50.59 27 C50.65 27.78, 50.65 26.22, 50.59 27"
      stroke="none" stroke-width="0" fill="#164791"></path>
    <path
      d="M50.59 27 C50.59 28.56, 50.46 30.15, 50.2 31.69 C49.95 33.23, 49.56 34.77, 49.06 36.23 C48.56 37.7, 47.93 39.15, 47.2 40.5 C46.47 41.85, 45.61 43.16, 44.67 44.36 C43.73 45.55, 42.67 46.68, 41.55 47.68 C40.43 48.69, 39.21 49.6, 37.94 50.38 C36.67 51.16, 35.32 51.84, 33.94 52.37 C32.57 52.91, 31.13 53.32, 29.69 53.59 C28.24 53.86, 26.76 54, 25.29 54 C23.83 54, 22.34 53.86, 20.9 53.59 C19.46 53.32, 18.02 52.91, 16.64 52.37 C15.27 51.84, 13.91 51.16, 12.65 50.38 C11.38 49.6, 10.16 48.69, 9.03 47.68 C7.91 46.68, 6.86 45.55, 5.92 44.36 C4.98 43.16, 4.12 41.85, 3.39 40.5 C2.66 39.15, 2.03 37.7, 1.53 36.23 C1.02 34.77, 0.64 33.23, 0.38 31.69 C0.13 30.15, 0 28.56, 0 27 C0 25.44, 0.13 23.85, 0.38 22.31 C0.64 20.77, 1.02 19.23, 1.53 17.77 C2.03 16.3, 2.66 14.85, 3.39 13.5 C4.12 12.15, 4.98 10.84, 5.92 9.64 C6.86 8.45, 7.91 7.32, 9.03 6.32 C10.16 5.31, 11.38 4.4, 12.65 3.62 C13.91 2.84, 15.27 2.16, 16.64 1.63 C18.02 1.09, 19.46 0.68, 20.9 0.41 C22.34 0.14, 23.83 0, 25.29 0 C26.76 0, 28.24 0.14, 29.69 0.41 C31.13 0.68, 32.57 1.09, 33.94 1.63 C35.32 2.16, 36.67 2.84, 37.94 3.62 C39.21 4.4, 40.43 5.31, 41.55 6.32 C42.67 7.32, 43.73 8.45, 44.67 9.64 C45.61 10.84, 46.47 12.15, 47.2 13.5 C47.93 14.85, 48.56 16.3, 49.06 17.77 C49.56 19.23, 49.95 20.77, 50.2 22.31 C50.46 23.85, 50.52 26.22, 50.59 27 C50.65 27.78, 50.65 26.22, 50.59 27"
      stroke="#164791" stroke-width="2" fill="none"></path>
  </g>
  <g transform="translate(48.96902604507068 319.7841208617047) rotate(0 12.216666221618652 13.928571428571416)"><text
      x="12.216666221618652" y="19.522285714285694" font-family="Virgil, Segoe UI Emoji"
      font-size="22.285714285714263px" fill="#ffffff" text-anchor="middle" style="white-space: pre;" direction="ltr"
      dominant-baseline="alphabetic">HI</text></g>
  <g transform="translate(422.6762013482612 65.73497443423665) rotate(0 24.304079181835277 11.749509757944914)"><text
      x="24.304079181835277" y="16.468112876735592" font-family="Virgil, Segoe UI Emoji"
      font-size="18.799215612711862px" fill="#1e1e1e" text-anchor="middle" style="white-space: pre;" direction="ltr"
      dominant-baseline="alphabetic">100%</text></g>
  <g transform="translate(428.89854254042166 476.27031909083416) rotate(0 15.291666984558105 11.749509757944907)"><text
      x="15.291666984558105" y="16.468112876735592" font-family="Virgil, Segoe UI Emoji"
      font-size="18.799215612711862px" fill="#1e1e1e" text-anchor="middle" style="white-space: pre;" direction="ltr"
      dominant-baseline="alphabetic">0%</text></g>
</svg>