<svg version="1.1" xmlns="http://www.w3.org/2000/svg" viewBox="0 0 799.0988969284708 461.0256255827236" width="2397.2966907854125" height="1383.076876748171">
  <!-- svg-source:excalidraw -->
  
  
  <g stroke-linecap="round" transform="translate(91.7341190740035 137.80111359214584) rotate(0 167.35615217430131 116.25990022941103)"><path d="M334.71 116.26 C334.71 119.3, 334.54 122.35, 334.2 125.38 C333.85 128.41, 333.34 131.44, 332.65 134.45 C331.97 137.45, 331.11 140.44, 330.09 143.4 C329.07 146.36, 327.87 149.29, 326.52 152.19 C325.17 155.08, 323.65 157.94, 321.97 160.75 C320.3 163.56, 318.46 166.33, 316.47 169.04 C314.48 171.75, 312.34 174.41, 310.05 177.01 C307.76 179.6, 305.32 182.14, 302.75 184.6 C300.18 187.06, 297.46 189.45, 294.61 191.76 C291.77 194.08, 288.79 196.32, 285.69 198.47 C282.6 200.62, 279.37 202.69, 276.05 204.66 C272.72 206.64, 269.27 208.53, 265.73 210.32 C262.18 212.1, 258.53 213.8, 254.8 215.39 C251.07 216.98, 247.23 218.47, 243.33 219.85 C239.43 221.23, 235.44 222.51, 231.4 223.67 C227.36 224.83, 223.23 225.89, 219.07 226.83 C214.91 227.77, 210.68 228.6, 206.42 229.31 C202.17 230.02, 197.86 230.61, 193.54 231.09 C189.21 231.56, 184.85 231.92, 180.49 232.16 C176.12 232.4, 171.73 232.52, 167.36 232.52 C162.98 232.52, 158.59 232.4, 154.23 232.16 C149.86 231.92, 145.5 231.56, 141.18 231.09 C136.85 230.61, 132.54 230.02, 128.29 229.31 C124.03 228.6, 119.8 227.77, 115.64 226.83 C111.48 225.89, 107.36 224.83, 103.31 223.67 C99.27 222.51, 95.28 221.23, 91.38 219.85 C87.48 218.47, 83.64 216.98, 79.91 215.39 C76.18 213.8, 72.53 212.1, 68.99 210.32 C65.45 208.53, 62 206.64, 58.67 204.66 C55.34 202.69, 52.11 200.62, 49.02 198.47 C45.92 196.32, 42.94 194.08, 40.1 191.76 C37.25 189.45, 34.53 187.06, 31.96 184.6 C29.39 182.14, 26.95 179.6, 24.66 177.01 C22.37 174.41, 20.23 171.75, 18.24 169.04 C16.25 166.33, 14.41 163.56, 12.74 160.75 C11.06 157.94, 9.54 155.08, 8.19 152.19 C6.84 149.29, 5.65 146.36, 4.62 143.4 C3.6 140.44, 2.75 137.45, 2.06 134.45 C1.38 131.44, 0.86 128.41, 0.52 125.38 C0.17 122.35, 0 119.3, 0 116.26 C0 113.22, 0.17 110.17, 0.52 107.14 C0.86 104.11, 1.38 101.08, 2.06 98.07 C2.75 95.07, 3.6 92.08, 4.62 89.12 C5.65 86.16, 6.84 83.23, 8.19 80.33 C9.54 77.44, 11.06 74.58, 12.74 71.77 C14.41 68.96, 16.25 66.19, 18.24 63.48 C20.23 60.77, 22.37 58.11, 24.66 55.51 C26.95 52.92, 29.39 50.38, 31.96 47.92 C34.53 45.46, 37.25 43.07, 40.1 40.76 C42.94 38.44, 45.92 36.2, 49.02 34.05 C52.11 31.9, 55.34 29.83, 58.67 27.86 C62 25.88, 65.45 23.99, 68.99 22.2 C72.53 20.42, 76.18 18.72, 79.91 17.13 C83.64 15.54, 87.48 14.05, 91.38 12.67 C95.28 11.29, 99.27 10.01, 103.31 8.85 C107.36 7.69, 111.48 6.63, 115.64 5.69 C119.8 4.75, 124.03 3.92, 128.29 3.21 C132.54 2.5, 136.85 1.91, 141.18 1.43 C145.5 0.96, 149.86 0.6, 154.23 0.36 C158.59 0.12, 162.98 0, 167.36 0 C171.73 0, 176.12 0.12, 180.49 0.36 C184.85 0.6, 189.21 0.96, 193.54 1.43 C197.86 1.91, 202.17 2.5, 206.42 3.21 C210.68 3.92, 214.91 4.75, 219.07 5.69 C223.23 6.63, 227.36 7.69, 231.4 8.85 C235.44 10.01, 239.43 11.29, 243.33 12.67 C247.23 14.05, 251.07 15.54, 254.8 17.13 C258.53 18.72, 262.18 20.42, 265.73 22.2 C269.27 23.99, 272.72 25.88, 276.05 27.86 C279.37 29.83, 282.6 31.9, 285.69 34.05 C288.79 36.2, 291.77 38.44, 294.61 40.76 C297.46 43.07, 300.18 45.46, 302.75 47.92 C305.32 50.38, 307.76 52.92, 310.05 55.51 C312.34 58.11, 314.48 60.77, 316.47 63.48 C318.46 66.19, 320.3 68.96, 321.97 71.77 C323.65 74.58, 325.17 77.44, 326.52 80.33 C327.87 83.23, 329.07 86.16, 330.09 89.12 C331.11 92.08, 331.97 95.07, 332.65 98.07 C333.34 101.08, 333.85 104.11, 334.2 107.14 C334.54 110.17, 334.71 113.22, 334.71 116.26" stroke="none" stroke-width="0" fill="#164791"></path><path d="M334.71 116.26 C334.71 119.3, 334.54 122.35, 334.2 125.38 C333.85 128.41, 333.34 131.44, 332.65 134.45 C331.97 137.45, 331.11 140.44, 330.09 143.4 C329.07 146.36, 327.87 149.29, 326.52 152.19 C325.17 155.08, 323.65 157.94, 321.97 160.75 C320.3 163.56, 318.46 166.33, 316.47 169.04 C314.48 171.75, 312.34 174.41, 310.05 177.01 C307.76 179.6, 305.32 182.14, 302.75 184.6 C300.18 187.06, 297.46 189.45, 294.61 191.76 C291.77 194.08, 288.79 196.32, 285.69 198.47 C282.6 200.62, 279.37 202.69, 276.05 204.66 C272.72 206.64, 269.27 208.53, 265.73 210.32 C262.18 212.1, 258.53 213.8, 254.8 215.39 C251.07 216.98, 247.23 218.47, 243.33 219.85 C239.43 221.23, 235.44 222.51, 231.4 223.67 C227.36 224.83, 223.23 225.89, 219.07 226.83 C214.91 227.77, 210.68 228.6, 206.42 229.31 C202.17 230.02, 197.86 230.61, 193.54 231.09 C189.21 231.56, 184.85 231.92, 180.49 232.16 C176.12 232.4, 171.73 232.52, 167.36 232.52 C162.98 232.52, 158.59 232.4, 154.23 232.16 C149.86 231.92, 145.5 231.56, 141.18 231.09 C136.85 230.61, 132.54 230.02, 128.29 229.31 C124.03 228.6, 119.8 227.77, 115.64 226.83 C111.48 225.89, 107.36 224.83, 103.31 223.67 C99.27 222.51, 95.28 221.23, 91.38 219.85 C87.48 218.47, 83.64 216.98, 79.91 215.39 C76.18 213.8, 72.53 212.1, 68.99 210.32 C65.45 208.53, 62 206.64, 58.67 204.66 C55.34 202.69, 52.11 200.62, 49.02 198.47 C45.92 196.32, 42.94 194.08, 40.1 191.76 C37.25 189.45, 34.53 187.06, 31.96 184.6 C29.39 182.14, 26.95 179.6, 24.66 177.01 C22.37 174.41, 20.23 171.75, 18.24 169.04 C16.25 166.33, 14.41 163.56, 12.74 160.75 C11.06 157.94, 9.54 155.08, 8.19 152.19 C6.84 149.29, 5.65 146.36, 4.62 143.4 C3.6 140.44, 2.75 137.45, 2.06 134.45 C1.38 131.44, 0.86 128.41, 0.52 125.38 C0.17 122.35, 0 119.3, 0 116.26 C0 113.22, 0.17 110.17, 0.52 107.14 C0.86 104.11, 1.38 101.08, 2.06 98.07 C2.75 95.07, 3.6 92.08, 4.62 89.12 C5.65 86.16, 6.84 83.23, 8.19 80.33 C9.54 77.44, 11.06 74.58, 12.74 71.77 C14.41 68.96, 16.25 66.19, 18.24 63.48 C20.23 60.77, 22.37 58.11, 24.66 55.51 C26.95 52.92, 29.39 50.38, 31.96 47.92 C34.53 45.46, 37.25 43.07, 40.1 40.76 C42.94 38.44, 45.92 36.2, 49.02 34.05 C52.11 31.9, 55.34 29.83, 58.67 27.86 C62 25.88, 65.45 23.99, 68.99 22.2 C72.53 20.42, 76.18 18.72, 79.91 17.13 C83.64 15.54, 87.48 14.05, 91.38 12.67 C95.28 11.29, 99.27 10.01, 103.31 8.85 C107.36 7.69, 111.48 6.63, 115.64 5.69 C119.8 4.75, 124.03 3.92, 128.29 3.21 C132.54 2.5, 136.85 1.91, 141.18 1.43 C145.5 0.96, 149.86 0.6, 154.23 0.36 C158.59 0.12, 162.98 0, 167.36 0 C171.73 0, 176.12 0.12, 180.49 0.36 C184.85 0.6, 189.21 0.96, 193.54 1.43 C197.86 1.91, 202.17 2.5, 206.42 3.21 C210.68 3.92, 214.91 4.75, 219.07 5.69 C223.23 6.63, 227.36 7.69, 231.4 8.85 C235.44 10.01, 239.43 11.29, 243.33 12.67 C247.23 14.05, 251.07 15.54, 254.8 17.13 C258.53 18.72, 262.18 20.42, 265.73 22.2 C269.27 23.99, 272.72 25.88, 276.05 27.86 C279.37 29.83, 282.6 31.9, 285.69 34.05 C288.79 36.2, 291.77 38.44, 294.61 40.76 C297.46 43.07, 300.18 45.46, 302.75 47.92 C305.32 50.38, 307.76 52.92, 310.05 55.51 C312.34 58.11, 314.48 60.77, 316.47 63.48 C318.46 66.19, 320.3 68.96, 321.97 71.77 C323.65 74.58, 325.17 77.44, 326.52 80.33 C327.87 83.23, 329.07 86.16, 330.09 89.12 C331.11 92.08, 331.97 95.07, 332.65 98.07 C333.34 101.08, 333.85 104.11, 334.2 107.14 C334.54 110.17, 334.71 113.22, 334.71 116.26" stroke="#164791" stroke-width="4" fill="none"></path></g><g stroke-linecap="round" transform="translate(105.26639914005045 149.21597730372065) rotate(0 151.4545095323515 105.21325890181062)"><path d="M302.91 105.21 C302.91 108.11, 302.74 111.02, 302.39 113.9 C302.05 116.79, 301.53 119.67, 300.84 122.53 C300.16 125.39, 299.3 128.23, 298.27 131.04 C297.25 133.85, 296.06 136.64, 294.7 139.38 C293.35 142.12, 291.83 144.82, 290.15 147.48 C288.48 150.13, 286.64 152.74, 284.65 155.29 C282.67 157.84, 280.53 160.33, 278.25 162.76 C275.97 165.18, 273.53 167.55, 270.97 169.84 C268.41 172.12, 265.71 174.34, 262.88 176.47 C260.06 178.6, 257.1 180.66, 254.03 182.62 C250.96 184.58, 247.77 186.46, 244.48 188.24 C241.19 190.02, 237.78 191.71, 234.29 193.29 C230.8 194.88, 227.21 196.37, 223.54 197.75 C219.87 199.12, 216.11 200.4, 212.29 201.56 C208.48 202.73, 204.57 203.79, 200.63 204.73 C196.69 205.67, 192.68 206.5, 188.63 207.21 C184.59 207.92, 180.5 208.51, 176.38 208.99 C172.27 209.47, 168.12 209.83, 163.96 210.07 C159.81 210.31, 155.62 210.43, 151.45 210.43 C147.29 210.43, 143.1 210.31, 138.95 210.07 C134.79 209.83, 130.64 209.47, 126.53 208.99 C122.41 208.51, 118.32 207.92, 114.27 207.21 C110.23 206.5, 106.22 205.67, 102.28 204.73 C98.33 203.79, 94.43 202.73, 90.62 201.56 C86.8 200.4, 83.04 199.12, 79.37 197.75 C75.7 196.37, 72.11 194.88, 68.62 193.29 C65.13 191.71, 61.72 190.02, 58.43 188.24 C55.14 186.46, 51.94 184.58, 48.88 182.62 C45.81 180.66, 42.85 178.6, 40.03 176.47 C37.2 174.34, 34.5 172.12, 31.94 169.84 C29.37 167.55, 26.94 165.18, 24.66 162.76 C22.38 160.33, 20.24 157.84, 18.25 155.29 C16.27 152.74, 14.43 150.13, 12.76 147.48 C11.08 144.82, 9.56 142.12, 8.21 139.38 C6.85 136.64, 5.66 133.85, 4.63 131.04 C3.61 128.23, 2.75 125.39, 2.07 122.53 C1.38 119.67, 0.86 116.79, 0.52 113.9 C0.17 111.02, 0 108.11, 0 105.21 C0 102.32, 0.17 99.41, 0.52 96.52 C0.86 93.64, 1.38 90.75, 2.07 87.9 C2.75 85.04, 3.61 82.19, 4.63 79.38 C5.66 76.58, 6.85 73.79, 8.21 71.05 C9.56 68.31, 11.08 65.6, 12.76 62.95 C14.43 60.3, 16.27 57.68, 18.25 55.14 C20.24 52.59, 22.38 50.09, 24.66 47.67 C26.94 45.24, 29.37 42.88, 31.94 40.59 C34.5 38.3, 37.2 36.09, 40.03 33.95 C42.85 31.82, 45.81 29.77, 48.88 27.81 C51.94 25.84, 55.14 23.96, 58.43 22.19 C61.72 20.41, 65.13 18.72, 68.62 17.13 C72.11 15.55, 75.7 14.06, 79.37 12.68 C83.04 11.3, 86.8 10.03, 90.62 8.86 C94.43 7.7, 98.33 6.64, 102.28 5.7 C106.22 4.76, 110.23 3.93, 114.27 3.22 C118.32 2.51, 122.41 1.91, 126.53 1.43 C130.64 0.96, 134.79 0.6, 138.95 0.36 C143.1 0.12, 147.29 0, 151.45 0 C155.62 0, 159.81 0.12, 163.96 0.36 C168.12 0.6, 172.27 0.96, 176.38 1.43 C180.5 1.91, 184.59 2.51, 188.63 3.22 C192.68 3.93, 196.69 4.76, 200.63 5.7 C204.57 6.64, 208.48 7.7, 212.29 8.86 C216.11 10.03, 219.87 11.3, 223.54 12.68 C227.21 14.06, 230.8 15.55, 234.29 17.13 C237.78 18.72, 241.19 20.41, 244.48 22.19 C247.77 23.96, 250.96 25.84, 254.03 27.81 C257.1 29.77, 260.06 31.82, 262.88 33.95 C265.71 36.09, 268.41 38.3, 270.97 40.59 C273.53 42.88, 275.97 45.24, 278.25 47.67 C280.53 50.09, 282.67 52.59, 284.65 55.14 C286.64 57.68, 288.48 60.3, 290.15 62.95 C291.83 65.6, 293.35 68.31, 294.7 71.05 C296.06 73.79, 297.25 76.58, 298.27 79.38 C299.3 82.19, 300.16 85.04, 300.84 87.9 C301.53 90.75, 302.05 93.64, 302.39 96.52 C302.74 99.41, 302.91 102.32, 302.91 105.21" stroke="none" stroke-width="0" fill="#ffffff"></path><path d="M302.91 105.21 C302.91 108.11, 302.74 111.02, 302.39 113.9 C302.05 116.79, 301.53 119.67, 300.84 122.53 C300.16 125.39, 299.3 128.23, 298.27 131.04 C297.25 133.85, 296.06 136.64, 294.7 139.38 C293.35 142.12, 291.83 144.82, 290.15 147.48 C288.48 150.13, 286.64 152.74, 284.65 155.29 C282.67 157.84, 280.53 160.33, 278.25 162.76 C275.97 165.18, 273.53 167.55, 270.97 169.84 C268.41 172.12, 265.71 174.34, 262.88 176.47 C260.06 178.6, 257.1 180.66, 254.03 182.62 C250.96 184.58, 247.77 186.46, 244.48 188.24 C241.19 190.02, 237.78 191.71, 234.29 193.29 C230.8 194.88, 227.21 196.37, 223.54 197.75 C219.87 199.12, 216.11 200.4, 212.29 201.56 C208.48 202.73, 204.57 203.79, 200.63 204.73 C196.69 205.67, 192.68 206.5, 188.63 207.21 C184.59 207.92, 180.5 208.51, 176.38 208.99 C172.27 209.47, 168.12 209.83, 163.96 210.07 C159.81 210.31, 155.62 210.43, 151.45 210.43 C147.29 210.43, 143.1 210.31, 138.95 210.07 C134.79 209.83, 130.64 209.47, 126.53 208.99 C122.41 208.51, 118.32 207.92, 114.27 207.21 C110.23 206.5, 106.22 205.67, 102.28 204.73 C98.33 203.79, 94.43 202.73, 90.62 201.56 C86.8 200.4, 83.04 199.12, 79.37 197.75 C75.7 196.37, 72.11 194.88, 68.62 193.29 C65.13 191.71, 61.72 190.02, 58.43 188.24 C55.14 186.46, 51.94 184.58, 48.88 182.62 C45.81 180.66, 42.85 178.6, 40.03 176.47 C37.2 174.34, 34.5 172.12, 31.94 169.84 C29.37 167.55, 26.94 165.18, 24.66 162.76 C22.38 160.33, 20.24 157.84, 18.25 155.29 C16.27 152.74, 14.43 150.13, 12.76 147.48 C11.08 144.82, 9.56 142.12, 8.21 139.38 C6.85 136.64, 5.66 133.85, 4.63 131.04 C3.61 128.23, 2.75 125.39, 2.07 122.53 C1.38 119.67, 0.86 116.79, 0.52 113.9 C0.17 111.02, 0 108.11, 0 105.21 C0 102.32, 0.17 99.41, 0.52 96.52 C0.86 93.64, 1.38 90.75, 2.07 87.9 C2.75 85.04, 3.61 82.19, 4.63 79.38 C5.66 76.58, 6.85 73.79, 8.21 71.05 C9.56 68.31, 11.08 65.6, 12.76 62.95 C14.43 60.3, 16.27 57.68, 18.25 55.14 C20.24 52.59, 22.38 50.09, 24.66 47.67 C26.94 45.24, 29.37 42.88, 31.94 40.59 C34.5 38.3, 37.2 36.09, 40.03 33.95 C42.85 31.82, 45.81 29.77, 48.88 27.81 C51.94 25.84, 55.14 23.96, 58.43 22.19 C61.72 20.41, 65.13 18.72, 68.62 17.13 C72.11 15.55, 75.7 14.06, 79.37 12.68 C83.04 11.3, 86.8 10.03, 90.62 8.86 C94.43 7.7, 98.33 6.64, 102.28 5.7 C106.22 4.76, 110.23 3.93, 114.27 3.22 C118.32 2.51, 122.41 1.91, 126.53 1.43 C130.64 0.96, 134.79 0.6, 138.95 0.36 C143.1 0.12, 147.29 0, 151.45 0 C155.62 0, 159.81 0.12, 163.96 0.36 C168.12 0.6, 172.27 0.96, 176.38 1.43 C180.5 1.91, 184.59 2.51, 188.63 3.22 C192.68 3.93, 196.69 4.76, 200.63 5.7 C204.57 6.64, 208.48 7.7, 212.29 8.86 C216.11 10.03, 219.87 11.3, 223.54 12.68 C227.21 14.06, 230.8 15.55, 234.29 17.13 C237.78 18.72, 241.19 20.41, 244.48 22.19 C247.77 23.96, 250.96 25.84, 254.03 27.81 C257.1 29.77, 260.06 31.82, 262.88 33.95 C265.71 36.09, 268.41 38.3, 270.97 40.59 C273.53 42.88, 275.97 45.24, 278.25 47.67 C280.53 50.09, 282.67 52.59, 284.65 55.14 C286.64 57.68, 288.48 60.3, 290.15 62.95 C291.83 65.6, 293.35 68.31, 294.7 71.05 C296.06 73.79, 297.25 76.58, 298.27 79.38 C299.3 82.19, 300.16 85.04, 300.84 87.9 C301.53 90.75, 302.05 93.64, 302.39 96.52 C302.74 99.41, 302.91 102.32, 302.91 105.21" stroke="#164791" stroke-width="4" fill="none"></path></g><g stroke-linecap="round" transform="translate(361.1209144506047 134.10412109701184) rotate(0 167.35615217430131 117.54399327582985)"><path d="M334.71 117.54 C334.71 120.62, 334.54 123.7, 334.2 126.77 C333.85 129.83, 333.34 132.9, 332.65 135.93 C331.97 138.97, 331.11 141.99, 330.09 144.98 C329.07 147.97, 327.87 150.94, 326.52 153.87 C325.17 156.79, 323.65 159.69, 321.97 162.53 C320.3 165.37, 318.46 168.17, 316.47 170.91 C314.48 173.65, 312.34 176.34, 310.05 178.96 C307.76 181.58, 305.32 184.15, 302.75 186.63 C300.18 189.12, 297.46 191.55, 294.61 193.88 C291.77 196.22, 288.79 198.49, 285.69 200.66 C282.6 202.83, 279.37 204.93, 276.05 206.93 C272.72 208.92, 269.27 210.83, 265.73 212.64 C262.18 214.45, 258.53 216.16, 254.8 217.77 C251.07 219.37, 247.23 220.88, 243.33 222.28 C239.43 223.67, 235.44 224.96, 231.4 226.14 C227.36 227.32, 223.23 228.39, 219.07 229.33 C214.91 230.28, 210.68 231.12, 206.42 231.84 C202.17 232.56, 197.86 233.16, 193.54 233.64 C189.21 234.12, 184.85 234.48, 180.49 234.73 C176.12 234.97, 171.73 235.09, 167.36 235.09 C162.98 235.09, 158.59 234.97, 154.23 234.73 C149.86 234.48, 145.5 234.12, 141.18 233.64 C136.85 233.16, 132.54 232.56, 128.29 231.84 C124.03 231.12, 119.8 230.28, 115.64 229.33 C111.48 228.39, 107.36 227.32, 103.31 226.14 C99.27 224.96, 95.28 223.67, 91.38 222.28 C87.48 220.88, 83.64 219.37, 79.91 217.77 C76.18 216.16, 72.53 214.45, 68.99 212.64 C65.45 210.83, 62 208.92, 58.67 206.93 C55.34 204.93, 52.11 202.83, 49.02 200.66 C45.92 198.49, 42.94 196.22, 40.1 193.88 C37.25 191.55, 34.53 189.12, 31.96 186.63 C29.39 184.15, 26.95 181.58, 24.66 178.96 C22.37 176.34, 20.23 173.65, 18.24 170.91 C16.25 168.17, 14.41 165.37, 12.74 162.53 C11.06 159.69, 9.54 156.79, 8.19 153.87 C6.84 150.94, 5.65 147.97, 4.62 144.98 C3.6 141.99, 2.75 138.97, 2.06 135.93 C1.38 132.9, 0.86 129.83, 0.52 126.77 C0.17 123.7, 0 120.62, 0 117.54 C0 114.47, 0.17 111.39, 0.52 108.32 C0.86 105.26, 1.38 102.19, 2.06 99.16 C2.75 96.12, 3.6 93.09, 4.62 90.1 C5.65 87.11, 6.84 84.14, 8.19 81.22 C9.54 78.3, 11.06 75.4, 12.74 72.56 C14.41 69.72, 16.25 66.92, 18.24 64.18 C20.23 61.44, 22.37 58.75, 24.66 56.13 C26.95 53.51, 29.39 50.94, 31.96 48.45 C34.53 45.97, 37.25 43.54, 40.1 41.21 C42.94 38.87, 45.92 36.6, 49.02 34.43 C52.11 32.25, 55.34 30.16, 58.67 28.16 C62 26.17, 65.45 24.26, 68.99 22.45 C72.53 20.64, 76.18 18.93, 79.91 17.32 C83.64 15.72, 87.48 14.21, 91.38 12.81 C95.28 11.42, 99.27 10.12, 103.31 8.95 C107.36 7.77, 111.48 6.7, 115.64 5.75 C119.8 4.8, 124.03 3.97, 128.29 3.25 C132.54 2.53, 136.85 1.93, 141.18 1.45 C145.5 0.97, 149.86 0.6, 154.23 0.36 C158.59 0.12, 162.98 0, 167.36 0 C171.73 0, 176.12 0.12, 180.49 0.36 C184.85 0.6, 189.21 0.97, 193.54 1.45 C197.86 1.93, 202.17 2.53, 206.42 3.25 C210.68 3.97, 214.91 4.8, 219.07 5.75 C223.23 6.7, 227.36 7.77, 231.4 8.95 C235.44 10.12, 239.43 11.42, 243.33 12.81 C247.23 14.21, 251.07 15.72, 254.8 17.32 C258.53 18.93, 262.18 20.64, 265.73 22.45 C269.27 24.26, 272.72 26.17, 276.05 28.16 C279.37 30.16, 282.6 32.25, 285.69 34.43 C288.79 36.6, 291.77 38.87, 294.61 41.21 C297.46 43.54, 300.18 45.97, 302.75 48.45 C305.32 50.94, 307.76 53.51, 310.05 56.13 C312.34 58.75, 314.48 61.44, 316.47 64.18 C318.46 66.92, 320.3 69.72, 321.97 72.56 C323.65 75.4, 325.17 78.3, 326.52 81.22 C327.87 84.14, 329.07 87.11, 330.09 90.1 C331.11 93.09, 331.97 96.12, 332.65 99.16 C333.34 102.19, 333.85 105.26, 334.2 108.32 C334.54 111.39, 334.71 114.47, 334.71 117.54" stroke="none" stroke-width="0" fill="#164791"></path><path d="M334.71 117.54 C334.71 120.62, 334.54 123.7, 334.2 126.77 C333.85 129.83, 333.34 132.9, 332.65 135.93 C331.97 138.97, 331.11 141.99, 330.09 144.98 C329.07 147.97, 327.87 150.94, 326.52 153.87 C325.17 156.79, 323.65 159.69, 321.97 162.53 C320.3 165.37, 318.46 168.17, 316.47 170.91 C314.48 173.65, 312.34 176.34, 310.05 178.96 C307.76 181.58, 305.32 184.15, 302.75 186.63 C300.18 189.12, 297.46 191.55, 294.61 193.88 C291.77 196.22, 288.79 198.49, 285.69 200.66 C282.6 202.83, 279.37 204.93, 276.05 206.93 C272.72 208.92, 269.27 210.83, 265.73 212.64 C262.18 214.45, 258.53 216.16, 254.8 217.77 C251.07 219.37, 247.23 220.88, 243.33 222.28 C239.43 223.67, 235.44 224.96, 231.4 226.14 C227.36 227.32, 223.23 228.39, 219.07 229.33 C214.91 230.28, 210.68 231.12, 206.42 231.84 C202.17 232.56, 197.86 233.16, 193.54 233.64 C189.21 234.12, 184.85 234.48, 180.49 234.73 C176.12 234.97, 171.73 235.09, 167.36 235.09 C162.98 235.09, 158.59 234.97, 154.23 234.73 C149.86 234.48, 145.5 234.12, 141.18 233.64 C136.85 233.16, 132.54 232.56, 128.29 231.84 C124.03 231.12, 119.8 230.28, 115.64 229.33 C111.48 228.39, 107.36 227.32, 103.31 226.14 C99.27 224.96, 95.28 223.67, 91.38 222.28 C87.48 220.88, 83.64 219.37, 79.91 217.77 C76.18 216.16, 72.53 214.45, 68.99 212.64 C65.45 210.83, 62 208.92, 58.67 206.93 C55.34 204.93, 52.11 202.83, 49.02 200.66 C45.92 198.49, 42.94 196.22, 40.1 193.88 C37.25 191.55, 34.53 189.12, 31.96 186.63 C29.39 184.15, 26.95 181.58, 24.66 178.96 C22.37 176.34, 20.23 173.65, 18.24 170.91 C16.25 168.17, 14.41 165.37, 12.74 162.53 C11.06 159.69, 9.54 156.79, 8.19 153.87 C6.84 150.94, 5.65 147.97, 4.62 144.98 C3.6 141.99, 2.75 138.97, 2.06 135.93 C1.38 132.9, 0.86 129.83, 0.52 126.77 C0.17 123.7, 0 120.62, 0 117.54 C0 114.47, 0.17 111.39, 0.52 108.32 C0.86 105.26, 1.38 102.19, 2.06 99.16 C2.75 96.12, 3.6 93.09, 4.62 90.1 C5.65 87.11, 6.84 84.14, 8.19 81.22 C9.54 78.3, 11.06 75.4, 12.74 72.56 C14.41 69.72, 16.25 66.92, 18.24 64.18 C20.23 61.44, 22.37 58.75, 24.66 56.13 C26.95 53.51, 29.39 50.94, 31.96 48.45 C34.53 45.97, 37.25 43.54, 40.1 41.21 C42.94 38.87, 45.92 36.6, 49.02 34.43 C52.11 32.25, 55.34 30.16, 58.67 28.16 C62 26.17, 65.45 24.26, 68.99 22.45 C72.53 20.64, 76.18 18.93, 79.91 17.32 C83.64 15.72, 87.48 14.21, 91.38 12.81 C95.28 11.42, 99.27 10.12, 103.31 8.95 C107.36 7.77, 111.48 6.7, 115.64 5.75 C119.8 4.8, 124.03 3.97, 128.29 3.25 C132.54 2.53, 136.85 1.93, 141.18 1.45 C145.5 0.97, 149.86 0.6, 154.23 0.36 C158.59 0.12, 162.98 0, 167.36 0 C171.73 0, 176.12 0.12, 180.49 0.36 C184.85 0.6, 189.21 0.97, 193.54 1.45 C197.86 1.93, 202.17 2.53, 206.42 3.25 C210.68 3.97, 214.91 4.8, 219.07 5.75 C223.23 6.7, 227.36 7.77, 231.4 8.95 C235.44 10.12, 239.43 11.42, 243.33 12.81 C247.23 14.21, 251.07 15.72, 254.8 17.32 C258.53 18.93, 262.18 20.64, 265.73 22.45 C269.27 24.26, 272.72 26.17, 276.05 28.16 C279.37 30.16, 282.6 32.25, 285.69 34.43 C288.79 36.6, 291.77 38.87, 294.61 41.21 C297.46 43.54, 300.18 45.97, 302.75 48.45 C305.32 50.94, 307.76 53.51, 310.05 56.13 C312.34 58.75, 314.48 61.44, 316.47 64.18 C318.46 66.92, 320.3 69.72, 321.97 72.56 C323.65 75.4, 325.17 78.3, 326.52 81.22 C327.87 84.14, 329.07 87.11, 330.09 90.1 C331.11 93.09, 331.97 96.12, 332.65 99.16 C333.34 102.19, 333.85 105.26, 334.2 108.32 C334.54 111.39, 334.71 114.47, 334.71 117.54" stroke="#164791" stroke-width="4" fill="none"></path></g><g stroke-linecap="round" transform="translate(378.0569287272874 145.87026113003532) rotate(0 151.4545095323515 106.37534156212843)"><path d="M302.91 106.38 C302.91 109.3, 302.74 112.24, 302.39 115.16 C302.05 118.08, 301.53 121, 300.84 123.88 C300.16 126.77, 299.3 129.65, 298.27 132.49 C297.25 135.33, 296.06 138.15, 294.7 140.92 C293.35 143.68, 291.83 146.42, 290.15 149.11 C288.48 151.79, 286.64 154.43, 284.65 157 C282.67 159.58, 280.53 162.11, 278.25 164.56 C275.97 167.01, 273.53 169.4, 270.97 171.71 C268.41 174.02, 265.71 176.27, 262.88 178.42 C260.06 180.58, 257.1 182.66, 254.03 184.64 C250.96 186.62, 247.77 188.52, 244.48 190.32 C241.19 192.12, 237.78 193.83, 234.29 195.43 C230.8 197.03, 227.21 198.54, 223.54 199.93 C219.87 201.32, 216.11 202.61, 212.29 203.79 C208.48 204.97, 204.57 206.04, 200.63 206.99 C196.69 207.94, 192.68 208.78, 188.63 209.5 C184.59 210.21, 180.5 210.82, 176.38 211.3 C172.27 211.78, 168.12 212.15, 163.96 212.39 C159.81 212.63, 155.62 212.75, 151.45 212.75 C147.29 212.75, 143.1 212.63, 138.95 212.39 C134.79 212.15, 130.64 211.78, 126.53 211.3 C122.41 210.82, 118.32 210.21, 114.27 209.5 C110.23 208.78, 106.22 207.94, 102.28 206.99 C98.33 206.04, 94.43 204.97, 90.62 203.79 C86.8 202.61, 83.04 201.32, 79.37 199.93 C75.7 198.54, 72.11 197.03, 68.62 195.43 C65.13 193.83, 61.72 192.12, 58.43 190.32 C55.14 188.52, 51.94 186.62, 48.88 184.64 C45.81 182.66, 42.85 180.58, 40.03 178.42 C37.2 176.27, 34.5 174.02, 31.94 171.71 C29.37 169.4, 26.94 167.01, 24.66 164.56 C22.38 162.11, 20.24 159.58, 18.25 157 C16.27 154.43, 14.43 151.79, 12.76 149.11 C11.08 146.42, 9.56 143.68, 8.21 140.92 C6.85 138.15, 5.66 135.33, 4.63 132.49 C3.61 129.65, 2.75 126.77, 2.07 123.88 C1.38 121, 0.86 118.08, 0.52 115.16 C0.17 112.24, 0 109.3, 0 106.38 C0 103.45, 0.17 100.51, 0.52 97.59 C0.86 94.67, 1.38 91.75, 2.07 88.87 C2.75 85.98, 3.61 83.1, 4.63 80.26 C5.66 77.42, 6.85 74.6, 8.21 71.84 C9.56 69.07, 11.08 66.33, 12.76 63.64 C14.43 60.96, 16.27 58.32, 18.25 55.75 C20.24 53.17, 22.38 50.64, 24.66 48.19 C26.94 45.74, 29.37 43.35, 31.94 41.04 C34.5 38.73, 37.2 36.48, 40.03 34.33 C42.85 32.17, 45.81 30.1, 48.88 28.11 C51.94 26.13, 55.14 24.23, 58.43 22.43 C61.72 20.63, 65.13 18.92, 68.62 17.32 C72.11 15.72, 75.7 14.21, 79.37 12.82 C83.04 11.43, 86.8 10.14, 90.62 8.96 C94.43 7.78, 98.33 6.71, 102.28 5.76 C106.22 4.81, 110.23 3.97, 114.27 3.26 C118.32 2.54, 122.41 1.93, 126.53 1.45 C130.64 0.97, 134.79 0.61, 138.95 0.36 C143.1 0.12, 147.29 0, 151.45 0 C155.62 0, 159.81 0.12, 163.96 0.36 C168.12 0.61, 172.27 0.97, 176.38 1.45 C180.5 1.93, 184.59 2.54, 188.63 3.26 C192.68 3.97, 196.69 4.81, 200.63 5.76 C204.57 6.71, 208.48 7.78, 212.29 8.96 C216.11 10.14, 219.87 11.43, 223.54 12.82 C227.21 14.21, 230.8 15.72, 234.29 17.32 C237.78 18.92, 241.19 20.63, 244.48 22.43 C247.77 24.23, 250.96 26.13, 254.03 28.11 C257.1 30.1, 260.06 32.17, 262.88 34.33 C265.71 36.48, 268.41 38.73, 270.97 41.04 C273.53 43.35, 275.97 45.74, 278.25 48.19 C280.53 50.64, 282.67 53.17, 284.65 55.75 C286.64 58.32, 288.48 60.96, 290.15 63.64 C291.83 66.33, 293.35 69.07, 294.7 71.84 C296.06 74.6, 297.25 77.42, 298.27 80.26 C299.3 83.1, 300.16 85.98, 300.84 88.87 C301.53 91.75, 302.05 94.67, 302.39 97.59 C302.74 100.51, 302.91 103.45, 302.91 106.38" stroke="none" stroke-width="0" fill="#ffffff"></path><path d="M302.91 106.38 C302.91 109.3, 302.74 112.24, 302.39 115.16 C302.05 118.08, 301.53 121, 300.84 123.88 C300.16 126.77, 299.3 129.65, 298.27 132.49 C297.25 135.33, 296.06 138.15, 294.7 140.92 C293.35 143.68, 291.83 146.42, 290.15 149.11 C288.48 151.79, 286.64 154.43, 284.65 157 C282.67 159.58, 280.53 162.11, 278.25 164.56 C275.97 167.01, 273.53 169.4, 270.97 171.71 C268.41 174.02, 265.71 176.27, 262.88 178.42 C260.06 180.58, 257.1 182.66, 254.03 184.64 C250.96 186.62, 247.77 188.52, 244.48 190.32 C241.19 192.12, 237.78 193.83, 234.29 195.43 C230.8 197.03, 227.21 198.54, 223.54 199.93 C219.87 201.32, 216.11 202.61, 212.29 203.79 C208.48 204.97, 204.57 206.04, 200.63 206.99 C196.69 207.94, 192.68 208.78, 188.63 209.5 C184.59 210.21, 180.5 210.82, 176.38 211.3 C172.27 211.78, 168.12 212.15, 163.96 212.39 C159.81 212.63, 155.62 212.75, 151.45 212.75 C147.29 212.75, 143.1 212.63, 138.95 212.39 C134.79 212.15, 130.64 211.78, 126.53 211.3 C122.41 210.82, 118.32 210.21, 114.27 209.5 C110.23 208.78, 106.22 207.94, 102.28 206.99 C98.33 206.04, 94.43 204.97, 90.62 203.79 C86.8 202.61, 83.04 201.32, 79.37 199.93 C75.7 198.54, 72.11 197.03, 68.62 195.43 C65.13 193.83, 61.72 192.12, 58.43 190.32 C55.14 188.52, 51.94 186.62, 48.88 184.64 C45.81 182.66, 42.85 180.58, 40.03 178.42 C37.2 176.27, 34.5 174.02, 31.94 171.71 C29.37 169.4, 26.94 167.01, 24.66 164.56 C22.38 162.11, 20.24 159.58, 18.25 157 C16.27 154.43, 14.43 151.79, 12.76 149.11 C11.08 146.42, 9.56 143.68, 8.21 140.92 C6.85 138.15, 5.66 135.33, 4.63 132.49 C3.61 129.65, 2.75 126.77, 2.07 123.88 C1.38 121, 0.86 118.08, 0.52 115.16 C0.17 112.24, 0 109.3, 0 106.38 C0 103.45, 0.17 100.51, 0.52 97.59 C0.86 94.67, 1.38 91.75, 2.07 88.87 C2.75 85.98, 3.61 83.1, 4.63 80.26 C5.66 77.42, 6.85 74.6, 8.21 71.84 C9.56 69.07, 11.08 66.33, 12.76 63.64 C14.43 60.96, 16.27 58.32, 18.25 55.75 C20.24 53.17, 22.38 50.64, 24.66 48.19 C26.94 45.74, 29.37 43.35, 31.94 41.04 C34.5 38.73, 37.2 36.48, 40.03 34.33 C42.85 32.17, 45.81 30.1, 48.88 28.11 C51.94 26.13, 55.14 24.23, 58.43 22.43 C61.72 20.63, 65.13 18.92, 68.62 17.32 C72.11 15.72, 75.7 14.21, 79.37 12.82 C83.04 11.43, 86.8 10.14, 90.62 8.96 C94.43 7.78, 98.33 6.71, 102.28 5.76 C106.22 4.81, 110.23 3.97, 114.27 3.26 C118.32 2.54, 122.41 1.93, 126.53 1.45 C130.64 0.97, 134.79 0.61, 138.95 0.36 C143.1 0.12, 147.29 0, 151.45 0 C155.62 0, 159.81 0.12, 163.96 0.36 C168.12 0.61, 172.27 0.97, 176.38 1.45 C180.5 1.93, 184.59 2.54, 188.63 3.26 C192.68 3.97, 196.69 4.81, 200.63 5.76 C204.57 6.71, 208.48 7.78, 212.29 8.96 C216.11 10.14, 219.87 11.43, 223.54 12.82 C227.21 14.21, 230.8 15.72, 234.29 17.32 C237.78 18.92, 241.19 20.63, 244.48 22.43 C247.77 24.23, 250.96 26.13, 254.03 28.11 C257.1 30.1, 260.06 32.17, 262.88 34.33 C265.71 36.48, 268.41 38.73, 270.97 41.04 C273.53 43.35, 275.97 45.74, 278.25 48.19 C280.53 50.64, 282.67 53.17, 284.65 55.75 C286.64 58.32, 288.48 60.96, 290.15 63.64 C291.83 66.33, 293.35 69.07, 294.7 71.84 C296.06 74.6, 297.25 77.42, 298.27 80.26 C299.3 83.1, 300.16 85.98, 300.84 88.87 C301.53 91.75, 302.05 94.67, 302.39 97.59 C302.74 100.51, 302.91 103.45, 302.91 106.38" stroke="#164791" stroke-width="4" fill="none"></path></g><g stroke-linecap="round" transform="translate(359.0469347040089 195.40826119182304) rotate(0 34.682854164276705 57.7316734446765)"><path d="M0 0 L69.37 0 L69.37 115.46 L0 115.46" stroke="none" stroke-width="0" fill="#ffffff"></path><path d="M0 0 C26.27 0, 52.55 0, 69.37 0 M0 0 C23.14 0, 46.27 0, 69.37 0 M69.37 0 C69.37 34.96, 69.37 69.93, 69.37 115.46 M69.37 0 C69.37 33.73, 69.37 67.46, 69.37 115.46 M69.37 115.46 C50.48 115.46, 31.6 115.46, 0 115.46 M69.37 115.46 C51.28 115.46, 33.19 115.46, 0 115.46 M0 115.46 C0 74.71, 0 33.95, 0 0 M0 115.46 C0 71.77, 0 28.07, 0 0" stroke="#ffffff" stroke-width="1" fill="none"></path></g><g transform="translate(144.94513702790118 60.437293343160206) rotate(0 246.0416717529297 22.5)"><text x="246.0416717529297" y="31.536" font-family="Virgil, Segoe UI Emoji" font-size="36px" fill="#1e1e1e" text-anchor="middle" style="white-space: pre;" direction="ltr" dominant-baseline="alphabetic">Aménagement sans obstacle</text></g><g transform="translate(200.0652697224259 228.74068626574052) rotate(0 59.025001525878906 25)"><text x="59.025001525878906" y="17.52" font-family="Virgil, Segoe UI Emoji" font-size="20px" fill="#1e1e1e" text-anchor="middle" style="white-space: pre;" direction="ltr" dominant-baseline="alphabetic">Accessibilité</text><text x="59.025001525878906" y="42.519999999999996" font-family="Virgil, Segoe UI Emoji" font-size="20px" fill="#1e1e1e" text-anchor="middle" style="white-space: pre;" direction="ltr" dominant-baseline="alphabetic">Physique</text></g><g transform="translate(469.4520650990271 227.2607760510877) rotate(0 59.025001525878906 25)"><text x="59.025001525878906" y="17.52" font-family="Virgil, Segoe UI Emoji" font-size="20px" fill="#1e1e1e" text-anchor="middle" style="white-space: pre;" direction="ltr" dominant-baseline="alphabetic">Accessibilité</text><text x="59.025001525878906" y="42.519999999999996" font-family="Virgil, Segoe UI Emoji" font-size="20px" fill="#1e1e1e" text-anchor="middle" style="white-space: pre;" direction="ltr" dominant-baseline="alphabetic">Numérique</text></g><g stroke-linecap="round"><g transform="translate(358.81200755735244 250.68590922968832) rotate(0 34.433388748178004 0)"><path d="M0 0 C16.77 0, 33.53 0, 68.87 0 M0 0 C21.93 0, 43.86 0, 68.87 0" stroke="#164791" stroke-width="1" fill="none"></path></g><g transform="translate(358.81200755735244 250.68590922968832) rotate(0 34.433388748178004 0)"><path d="M0 0 L13.59 -6.34 L13.59 6.34 L0 0" stroke="none" stroke-width="0" fill="#164791" fill-rule="evenodd"></path><path d="M0 0 C3.31 -1.54, 6.62 -3.09, 13.59 -6.34 M0 0 C4.33 -2.02, 8.66 -4.04, 13.59 -6.34 M13.59 -6.34 C13.59 -3.67, 13.59 -1.01, 13.59 6.34 M13.59 -6.34 C13.59 -1.64, 13.59 3.07, 13.59 6.34 M13.59 6.34 C10.74 5.01, 7.88 3.67, 0 0 M13.59 6.34 C8.94 4.17, 4.28 1.99, 0 0 M0 0 C0 0, 0 0, 0 0 M0 0 C0 0, 0 0, 0 0" stroke="#164791" stroke-width="1" fill="none"></path></g><g transform="translate(358.81200755735244 250.68590922968832) rotate(0 34.433388748178004 0)"><path d="M68.87 0 L55.27 6.34 L55.27 -6.34 L68.87 0" stroke="none" stroke-width="0" fill="#164791" fill-rule="evenodd"></path><path d="M68.87 0 C65.56 1.54, 62.25 3.09, 55.27 6.34 M68.87 0 C64.54 2.02, 60.21 4.04, 55.27 6.34 M55.27 6.34 C55.27 3.67, 55.27 1.01, 55.27 -6.34 M55.27 6.34 C55.27 1.64, 55.27 -3.07, 55.27 -6.34 M55.27 -6.34 C58.13 -5.01, 60.99 -3.67, 68.87 0 M55.27 -6.34 C59.93 -4.17, 64.59 -1.99, 68.87 0 M68.87 0 C68.87 0, 68.87 0, 68.87 0 M68.87 0 C68.87 0, 68.87 0, 68.87 0" stroke="#164791" stroke-width="1" fill="none"></path></g></g><mask></mask><g stroke-linecap="round"><g transform="translate(391.7676000561378 280.16338165290017) rotate(0 0 -29.694652536572107)"><path d="M0 0 C0 -15.46, 0 -30.91, 0 -59.39 M0 0 C0 -17.73, 0 -35.45, 0 -59.39" stroke="#164791" stroke-width="1" fill="none"></path></g><g transform="translate(391.7676000561378 280.16338165290017) rotate(0 0 -29.694652536572107)"><path d="M0 0 L-6.34 -13.59 L6.34 -13.59 L0 0" stroke="none" stroke-width="0" fill="#164791" fill-rule="evenodd"></path><path d="M0 0 C-1.65 -3.54, -3.3 -7.08, -6.34 -13.59 M0 0 C-1.89 -4.06, -3.78 -8.12, -6.34 -13.59 M-6.34 -13.59 C-2.65 -13.59, 1.05 -13.59, 6.34 -13.59 M-6.34 -13.59 C-2.81 -13.59, 0.72 -13.59, 6.34 -13.59 M6.34 -13.59 C4.53 -9.72, 2.73 -5.85, 0 0 M6.34 -13.59 C4.33 -9.29, 2.33 -4.99, 0 0 M0 0 C0 0, 0 0, 0 0 M0 0 C0 0, 0 0, 0 0" stroke="#164791" stroke-width="1" fill="none"></path></g><g transform="translate(391.7676000561378 280.16338165290017) rotate(0 0 -29.694652536572107)"><path d="M0 -59.39 L6.34 -45.79 L-6.34 -45.79 L0 -59.39" stroke="none" stroke-width="0" fill="#164791" fill-rule="evenodd"></path><path d="M0 -59.39 C1.65 -55.85, 3.3 -52.31, 6.34 -45.79 M0 -59.39 C1.89 -55.33, 3.78 -51.27, 6.34 -45.79 M6.34 -45.79 C2.65 -45.79, -1.05 -45.79, -6.34 -45.79 M6.34 -45.79 C2.81 -45.79, -0.72 -45.79, -6.34 -45.79 M-6.34 -45.79 C-4.53 -49.67, -2.73 -53.54, 0 -59.39 M-6.34 -45.79 C-4.33 -50.1, -2.33 -54.4, 0 -59.39 M0 -59.39 C0 -59.39, 0 -59.39, 0 -59.39 M0 -59.39 C0 -59.39, 0 -59.39, 0 -59.39" stroke="#164791" stroke-width="1" fill="none"></path></g></g><mask></mask><g stroke-linecap="round" transform="translate(10 10) rotate(0 389.5494484642354 220.5128127913618)"><path d="M0 0 C251.8 0, 503.6 0, 779.1 0 M0 0 C179.66 0, 359.32 0, 779.1 0 M779.1 0 C779.1 115.44, 779.1 230.87, 779.1 441.03 M779.1 0 C779.1 88.42, 779.1 176.83, 779.1 441.03 M779.1 441.03 C592.35 441.03, 405.6 441.03, 0 441.03 M779.1 441.03 C602.17 441.03, 425.24 441.03, 0 441.03 M0 441.03 C0 324.14, 0 207.25, 0 0 M0 441.03 C0 315.09, 0 189.16, 0 0" stroke="transparent" stroke-width="1" fill="none"></path></g></svg>