<svg version="1.1" xmlns="http://www.w3.org/2000/svg" viewBox="0 0 1185.6702791410053 1044.4448547425163" width="3557.010837423016" height="3133.334564227549">
  <!-- svg-source:excalidraw -->
  <title>Dispositif d'alerte précoce</title>
  
  <g stroke-linecap="round" transform="translate(109.86311914877842 182.94200675032027) rotate(0 74.27846889028297 107.3290477320798)"><path d="M0 0 L148.56 0 L148.56 214.66 L0 214.66" stroke="none" stroke-width="0" fill="#ffffff"></path><path d="M0 0 C34.98 0, 69.97 0, 148.56 0 M0 0 C49.02 0, 98.04 0, 148.56 0 M148.56 0 C148.56 76.54, 148.56 153.09, 148.56 214.66 M148.56 0 C148.56 75.9, 148.56 151.79, 148.56 214.66 M148.56 214.66 C104.94 214.66, 61.32 214.66, 0 214.66 M148.56 214.66 C112.58 214.66, 76.6 214.66, 0 214.66 M0 214.66 C0 149.37, 0 84.09, 0 0 M0 214.66 C0 139.5, 0 64.34, 0 0" stroke="#1e1e1e" stroke-width="2" fill="none"></path></g><g transform="translate(124.00408727612194 356.34099423446116) rotate(0 60.13750076293945 18.129553990009356)"><text x="60.13750076293945" y="25.410382872397083" font-family="Virgil, Segoe UI Emoji" font-size="29.007286384014936px" fill="#1e1e1e" text-anchor="middle" style="white-space: pre;" direction="ltr" dominant-baseline="alphabetic">Service 1</text></g><g stroke-linecap="round" transform="translate(303.35148961194045 182.94200675032027) rotate(0 74.27846889028297 107.3290477320798)"><path d="M0 0 L148.56 0 L148.56 214.66 L0 214.66" stroke="none" stroke-width="0" fill="#ffffff"></path><path d="M0 0 C43.88 0, 87.76 0, 148.56 0 M0 0 C33.93 0, 67.86 0, 148.56 0 M148.56 0 C148.56 69.18, 148.56 138.36, 148.56 214.66 M148.56 0 C148.56 52.99, 148.56 105.98, 148.56 214.66 M148.56 214.66 C113.49 214.66, 78.42 214.66, 0 214.66 M148.56 214.66 C112.2 214.66, 75.84 214.66, 0 214.66 M0 214.66 C0 152.25, 0 89.84, 0 0 M0 214.66 C0 158.72, 0 102.79, 0 0" stroke="#1e1e1e" stroke-width="2" fill="none"></path></g><g transform="translate(311.0924600281023 356.34099423446116) rotate(0 66.5374984741211 18.129553990009356)"><text x="66.5374984741211" y="25.410382872397083" font-family="Virgil, Segoe UI Emoji" font-size="29.007286384014936px" fill="#1e1e1e" text-anchor="middle" style="white-space: pre;" direction="ltr" dominant-baseline="alphabetic">Service 2</text></g><g stroke-linecap="round" transform="translate(506.8014753398202 182.94200675032027) rotate(0 74.27846889028297 107.3290477320798)"><path d="M0 0 L148.56 0 L148.56 214.66 L0 214.66" stroke="none" stroke-width="0" fill="#ffffff"></path><path d="M0 0 C36.8 0, 73.61 0, 148.56 0 M0 0 C53.89 0, 107.78 0, 148.56 0 M148.56 0 C148.56 58.57, 148.56 117.14, 148.56 214.66 M148.56 0 C148.56 73.58, 148.56 147.16, 148.56 214.66 M148.56 214.66 C117.5 214.66, 86.43 214.66, 0 214.66 M148.56 214.66 C105.4 214.66, 62.25 214.66, 0 214.66 M0 214.66 C0 153.4, 0 92.13, 0 0 M0 214.66 C0 156.82, 0 98.98, 0 0" stroke="#1e1e1e" stroke-width="2" fill="none"></path></g><g transform="translate(514.9924427042242 356.34099423446116) rotate(0 66.0875015258789 18.129553990009356)"><text x="66.0875015258789" y="25.410382872397083" font-family="Virgil, Segoe UI Emoji" font-size="29.007286384014936px" fill="#1e1e1e" text-anchor="middle" style="white-space: pre;" direction="ltr" dominant-baseline="alphabetic">Service 3</text></g><g stroke-linecap="round" transform="translate(673.4942310249171 758.5707514273582) rotate(0 80.20180499020853 113.51478871652364)"><path d="M0 0 L160.4 0 L160.4 227.03 L0 227.03" stroke="none" stroke-width="0" fill="#f8f0fc"></path><path d="M0 0 C35.33 0, 70.66 0, 160.4 0 M0 0 C43.56 0, 87.12 0, 160.4 0 M160.4 0 C160.4 60.32, 160.4 120.64, 160.4 227.03 M160.4 0 C160.4 81.11, 160.4 162.22, 160.4 227.03 M160.4 227.03 C107.48 227.03, 54.56 227.03, 0 227.03 M160.4 227.03 C100.02 227.03, 39.64 227.03, 0 227.03 M0 227.03 C0 164.6, 0 102.18, 0 0 M0 227.03 C0 177.48, 0 127.93, 0 0" stroke="#1e1e1e" stroke-width="2" fill="none"></path></g><g transform="translate(679.4835344892472 947.3920648044126) rotate(0 74.2125015258789 16.604132027996457)"><text x="74.2125015258789" y="23.272351450439857" font-family="Virgil, Segoe UI Emoji" font-size="26.56661124479436px" fill="#1e1e1e" text-anchor="middle" style="white-space: pre;" direction="ltr" dominant-baseline="alphabetic">Assessment</text></g><g stroke-linecap="round" transform="translate(721.9021765722755 182.94200675032027) rotate(0 74.27846889028297 107.3290477320798)"><path d="M0 0 L148.56 0 L148.56 214.66 L0 214.66" stroke="none" stroke-width="0" fill="#ffffff"></path><path d="M0 0 C49.63 0, 99.25 0, 148.56 0 M0 0 C41.99 0, 83.98 0, 148.56 0 M148.56 0 C148.56 83.86, 148.56 167.73, 148.56 214.66 M148.56 0 C148.56 75.89, 148.56 151.77, 148.56 214.66 M148.56 214.66 C99.4 214.66, 50.25 214.66, 0 214.66 M148.56 214.66 C102.47 214.66, 56.38 214.66, 0 214.66 M0 214.66 C0 139.02, 0 63.38, 0 0 M0 214.66 C0 140.04, 0 65.42, 0 0" stroke="#1e1e1e" stroke-width="2" fill="none"></path></g><g transform="translate(730.6931424108006 356.34099423446116) rotate(0 65.48750305175781 18.129553990009356)"><text x="65.48750305175781" y="25.410382872397083" font-family="Virgil, Segoe UI Emoji" font-size="29.007286384014936px" fill="#1e1e1e" text-anchor="middle" style="white-space: pre;" direction="ltr" dominant-baseline="alphabetic">Service 4</text></g><g stroke-linecap="round" transform="translate(930.0124485019851 182.94200675032027) rotate(0 74.27846889028297 107.3290477320798)"><path d="M0 0 L148.56 0 L148.56 214.66 L0 214.66" stroke="none" stroke-width="0" fill="#ffffff"></path><path d="M0 0 C37.94 0, 75.88 0, 148.56 0 M148.56 0 C148.56 48.06, 148.56 96.11, 148.56 214.66 M148.56 214.66 C96.32 214.66, 44.08 214.66, 0 214.66 M0 214.66 C0 143.17, 0 71.69, 0 0" stroke="#1e1e1e" stroke-width="2.5" fill="none" stroke-dasharray="8 10"></path></g><g transform="translate(938.7409143405102 356.34099423446116) rotate(0 65.55000305175781 18.129553990009356)"><text x="65.55000305175781" y="25.410382872397083" font-family="Virgil, Segoe UI Emoji" font-size="29.007286384014936px" fill="#1e1e1e" text-anchor="middle" style="white-space: pre;" direction="ltr" dominant-baseline="alphabetic">Service N</text></g><g transform="translate(254.17843320823522 55.446519961472404) rotate(0 323.9103754406983 28.502086563931073)"><text x="323.9103754406983" y="39.948524528005805" font-family="Virgil, Segoe UI Emoji" font-size="45.60333850228973px" fill="#1e1e1e" text-anchor="middle" style="white-space: pre;" direction="ltr" dominant-baseline="alphabetic">Dispositif d'alertes précoces</text></g><g stroke-linecap="round" transform="translate(182.0967377713505 583.4488559869307) rotate(0 212.18729562437875 72.72420850781782)"><path d="M0 0 C117.07 0, 234.14 0, 424.37 0 M0 0 C130.99 0, 261.98 0, 424.37 0 M424.37 0 C424.37 57.48, 424.37 114.96, 424.37 145.45 M424.37 0 C424.37 33.28, 424.37 66.55, 424.37 145.45 M424.37 145.45 C300.12 145.45, 175.87 145.45, 0 145.45 M424.37 145.45 C315.72 145.45, 207.06 145.45, 0 145.45 M0 145.45 C0 90.45, 0 35.46, 0 0 M0 145.45 C0 89.3, 0 33.14, 0 0" stroke="#1e1e1e" stroke-width="1" fill="none"></path></g><g transform="translate(187.0967377713505 597.8028442894221) rotate(0 193.8125 58.37022020532652)"><text x="0" y="11.687385805683654" font-family="Virgil, Segoe UI Emoji" font-size="13.341764618360335px" fill="#1e1e1e" text-anchor="start" style="white-space: pre;" direction="ltr" dominant-baseline="alphabetic"> - Texte alternatif pour les contenus non textuels</text><text x="0" y="28.364591578634073" font-family="Virgil, Segoe UI Emoji" font-size="13.341764618360335px" fill="#1e1e1e" text-anchor="start" style="white-space: pre;" direction="ltr" dominant-baseline="alphabetic"></text><text x="0" y="45.04179735158449" font-family="Virgil, Segoe UI Emoji" font-size="13.341764618360335px" fill="#1e1e1e" text-anchor="start" style="white-space: pre;" direction="ltr" dominant-baseline="alphabetic"> - Contraste entre le texte et arrière-plan au moins 4,5:1</text><text x="0" y="61.719003124534915" font-family="Virgil, Segoe UI Emoji" font-size="13.341764618360335px" fill="#1e1e1e" text-anchor="start" style="white-space: pre;" direction="ltr" dominant-baseline="alphabetic"></text><text x="0" y="78.39620889748534" font-family="Virgil, Segoe UI Emoji" font-size="13.341764618360335px" fill="#1e1e1e" text-anchor="start" style="white-space: pre;" direction="ltr" dominant-baseline="alphabetic"> - Texte pouvant être agrandi sans perte  de qualité</text><text x="0" y="95.07341467043574" font-family="Virgil, Segoe UI Emoji" font-size="13.341764618360335px" fill="#1e1e1e" text-anchor="start" style="white-space: pre;" direction="ltr" dominant-baseline="alphabetic"></text><text x="0" y="111.75062044338617" font-family="Virgil, Segoe UI Emoji" font-size="13.341764618360335px" fill="#1e1e1e" text-anchor="start" style="white-space: pre;" direction="ltr" dominant-baseline="alphabetic"> - Texte facile à comprendre</text></g><g stroke-linecap="round"><g transform="translate(191.8815403327235 447.19201301652174) rotate(0 12.754427605837009 33.62530914266114)"><path d="M0 0 C0.67 6.14, -0.21 25.63, 4.04 36.84 C8.29 48.05, 21.93 62.18, 25.51 67.25 M0 0 C0.67 6.14, -0.21 25.63, 4.04 36.84 C8.29 48.05, 21.93 62.18, 25.51 67.25" stroke="#1e1e1e" stroke-width="2" fill="none"></path></g><g transform="translate(191.8815403327235 447.19201301652174) rotate(0 12.754427605837009 33.62530914266114)"><path d="M25.51 67.25 L12.03 60.67 L21.88 52.7 L25.51 67.25" stroke="none" stroke-width="0" fill="#1e1e1e" fill-rule="evenodd"></path><path d="M25.51 67.25 C21.4 65.24, 17.28 63.24, 12.03 60.67 M25.51 67.25 C20.43 64.77, 15.35 62.29, 12.03 60.67 M12.03 60.67 C15.84 57.59, 19.66 54.5, 21.88 52.7 M12.03 60.67 C15.3 58.03, 18.56 55.38, 21.88 52.7 M21.88 52.7 C23.29 58.34, 24.7 63.99, 25.51 67.25 M21.88 52.7 C23.02 57.25, 24.15 61.81, 25.51 67.25 M25.51 67.25 C25.51 67.25, 25.51 67.25, 25.51 67.25 M25.51 67.25 C25.51 67.25, 25.51 67.25, 25.51 67.25" stroke="#1e1e1e" stroke-width="2" fill="none"></path></g></g><mask></mask><g stroke-linecap="round"><g transform="translate(357.5907860812449 437.6963120585958) rotate(0 15.975998207530665 36.84687974435468)"><path d="M0 0 C1.75 6.14, 5.15 24.56, 10.48 36.84 C15.81 49.12, 28.37 67.55, 31.95 73.69 M0 0 C1.75 6.14, 5.15 24.56, 10.48 36.84 C15.81 49.12, 28.37 67.55, 31.95 73.69" stroke="#1e1e1e" stroke-width="2" fill="none"></path></g><g transform="translate(357.5907860812449 437.6963120585958) rotate(0 15.975998207530665 36.84687974435468)"><path d="M31.95 73.69 L19.38 65.52 L30.13 58.8 L31.95 73.69" stroke="none" stroke-width="0" fill="#1e1e1e" fill-rule="evenodd"></path><path d="M31.95 73.69 C27.76 70.97, 23.58 68.25, 19.38 65.52 M31.95 73.69 C28.01 71.13, 24.07 68.57, 19.38 65.52 M19.38 65.52 C22.38 63.64, 25.38 61.77, 30.13 58.8 M19.38 65.52 C22.49 63.57, 25.61 61.63, 30.13 58.8 M30.13 58.8 C30.74 63.76, 31.34 68.71, 31.95 73.69 M30.13 58.8 C30.73 63.7, 31.33 68.59, 31.95 73.69 M31.95 73.69 C31.95 73.69, 31.95 73.69, 31.95 73.69 M31.95 73.69 C31.95 73.69, 31.95 73.69, 31.95 73.69" stroke="#1e1e1e" stroke-width="2" fill="none"></path></g></g><mask></mask><g stroke-linecap="round"><g transform="translate(563.7460776755315 427.12675423343876) rotate(0 -19.5033048561113 50.78390989363203)"><path d="M0 0 C-3.91 7.06, -16.97 25.45, -23.47 42.38 C-29.98 59.3, -36.42 91.7, -39.01 101.57 M0 0 C-3.91 7.06, -16.97 25.45, -23.47 42.38 C-29.98 59.3, -36.42 91.7, -39.01 101.57" stroke="#1e1e1e" stroke-width="2" fill="none"></path></g><g transform="translate(563.7460776755315 427.12675423343876) rotate(0 -19.5033048561113 50.78390989363203)"><path d="M-39.01 101.57 L-42.07 86.88 L-29.73 89.78 L-39.01 101.57" stroke="none" stroke-width="0" fill="#1e1e1e" fill-rule="evenodd"></path><path d="M-39.01 101.57 C-39.95 97.05, -40.9 92.53, -42.07 86.88 M-39.01 101.57 C-40.14 96.16, -41.27 90.75, -42.07 86.88 M-42.07 86.88 C-39.36 87.52, -36.65 88.16, -29.73 89.78 M-42.07 86.88 C-37.79 87.89, -33.51 88.89, -29.73 89.78 M-29.73 89.78 C-33.44 94.49, -37.14 99.2, -39.01 101.57 M-29.73 89.78 C-31.99 92.65, -34.25 95.52, -39.01 101.57 M-39.01 101.57 C-39.01 101.57, -39.01 101.57, -39.01 101.57 M-39.01 101.57 C-39.01 101.57, -39.01 101.57, -39.01 101.57" stroke="#1e1e1e" stroke-width="2" fill="none"></path></g></g><mask></mask><g stroke-linecap="round"><g transform="translate(819.2340137090705 425.0460807395657) rotate(0 -93.65316220302611 53.62848392180916)"><path d="M0 0 C-12.88 9.31, -46.08 37.99, -77.3 55.87 C-108.52 73.75, -168.97 98.69, -187.31 107.26 M0 0 C-12.88 9.31, -46.08 37.99, -77.3 55.87 C-108.52 73.75, -168.97 98.69, -187.31 107.26" stroke="#1e1e1e" stroke-width="2" fill="none"></path></g><g transform="translate(819.2340137090705 425.0460807395657) rotate(0 -93.65316220302611 53.62848392180916)"><path d="M-187.31 107.26 L-177.45 95.95 L-172.31 107.54 L-187.31 107.26" stroke="none" stroke-width="0" fill="#1e1e1e" fill-rule="evenodd"></path><path d="M-187.31 107.26 C-185.27 104.92, -183.23 102.59, -177.45 95.95 M-187.31 107.26 C-184.55 104.1, -181.8 100.95, -177.45 95.95 M-177.45 95.95 C-176.4 98.31, -175.35 100.67, -172.31 107.54 M-177.45 95.95 C-176.2 98.76, -174.96 101.56, -172.31 107.54 M-172.31 107.54 C-178.25 107.43, -184.2 107.32, -187.31 107.26 M-172.31 107.54 C-175.91 107.48, -179.51 107.41, -187.31 107.26 M-187.31 107.26 C-187.31 107.26, -187.31 107.26, -187.31 107.26 M-187.31 107.26 C-187.31 107.26, -187.31 107.26, -187.31 107.26" stroke="#1e1e1e" stroke-width="2" fill="none"></path></g></g><mask></mask><g stroke-linecap="round"><g transform="translate(936.0121435711308 857.3774898954792) rotate(0 -33.88928354888685 16.176453298549063)"><path d="M0 0 C-3.59 2.67, -10.23 10.63, -21.52 16.03 C-32.82 21.42, -60.07 29.63, -67.78 32.35 M0 0 C-3.59 2.67, -10.23 10.63, -21.52 16.03 C-32.82 21.42, -60.07 29.63, -67.78 32.35" stroke="#1e1e1e" stroke-width="2" fill="none"></path></g><g transform="translate(936.0121435711308 857.3774898954792) rotate(0 -33.88928354888685 16.176453298549063)"><path d="M-67.78 32.35 L-56.85 22.08 L-52.88 34.12 L-67.78 32.35" stroke="none" stroke-width="0" fill="#1e1e1e" fill-rule="evenodd"></path><path d="M-67.78 32.35 C-64.72 29.47, -61.65 26.59, -56.85 22.08 M-67.78 32.35 C-65.26 29.99, -62.74 27.62, -56.85 22.08 M-56.85 22.08 C-55.86 25.07, -54.88 28.06, -52.88 34.12 M-56.85 22.08 C-55.47 26.26, -54.1 30.44, -52.88 34.12 M-52.88 34.12 C-58.72 33.43, -64.55 32.74, -67.78 32.35 M-52.88 34.12 C-57.17 33.61, -61.46 33.1, -67.78 32.35 M-67.78 32.35 C-67.78 32.35, -67.78 32.35, -67.78 32.35 M-67.78 32.35 C-67.78 32.35, -67.78 32.35, -67.78 32.35" stroke="#1e1e1e" stroke-width="2" fill="none"></path></g></g><mask></mask><g stroke-linecap="round"><g transform="translate(1000.7630572702501 444.1545996533923) rotate(0 -178.47047151546303 64.134521549868)"><path d="M0 0 C-27.75 13.01, -106.99 56.7, -166.48 78.08 C-225.97 99.45, -325.2 119.9, -356.94 128.27 M0 0 C-27.75 13.01, -106.99 56.7, -166.48 78.08 C-225.97 99.45, -325.2 119.9, -356.94 128.27" stroke="#1e1e1e" stroke-width="2" fill="none"></path></g><g transform="translate(1000.7630572702501 444.1545996533923) rotate(0 -178.47047151546303 64.134521549868)"><path d="M-356.94 128.27 L-345.19 118.94 L-342.25 131.27 L-356.94 128.27" stroke="none" stroke-width="0" fill="#1e1e1e" fill-rule="evenodd"></path><path d="M-356.94 128.27 C-354.24 126.12, -351.53 123.98, -345.19 118.94 M-356.94 128.27 C-353.9 125.86, -350.86 123.44, -345.19 118.94 M-345.19 118.94 C-344.59 121.44, -344 123.94, -342.25 131.27 M-345.19 118.94 C-344.52 121.74, -343.85 124.54, -342.25 131.27 M-342.25 131.27 C-347.52 130.2, -352.8 129.12, -356.94 128.27 M-342.25 131.27 C-348 130.1, -353.75 128.92, -356.94 128.27 M-356.94 128.27 C-356.94 128.27, -356.94 128.27, -356.94 128.27 M-356.94 128.27 C-356.94 128.27, -356.94 128.27, -356.94 128.27" stroke="#1e1e1e" stroke-width="2" fill="none"></path></g></g><mask></mask><g stroke-linecap="round" transform="translate(181.68154876439894 546.61487617409) rotate(0 212.6250820229302 19.631910057223138)"><path d="M0 0 L425.25 0 L425.25 39.26 L0 39.26" stroke="none" stroke-width="0" fill="#164791"></path><path d="M0 0 C125.52 0, 251.04 0, 425.25 0 M0 0 C127.78 0, 255.56 0, 425.25 0 M425.25 0 C425.25 12.16, 425.25 24.33, 425.25 39.26 M425.25 0 C425.25 9.09, 425.25 18.17, 425.25 39.26 M425.25 39.26 C255.73 39.26, 86.22 39.26, 0 39.26 M425.25 39.26 C286.65 39.26, 148.06 39.26, 0 39.26 M0 39.26 C0 30.27, 0 21.29, 0 0 M0 39.26 C0 23.69, 0 8.11, 0 0" stroke="#164791" stroke-width="1" fill="none"></path></g><g transform="translate(186.68154876439894 553.7467862313132) rotate(0 117.4124984741211 12.5)"><text x="0" y="17.52" font-family="Virgil, Segoe UI Emoji" font-size="20px" fill="#ffffff" text-anchor="start" style="white-space: pre;" direction="ltr" dominant-baseline="alphabetic">Référentiel (4 critères)</text></g><g stroke-linecap="round" transform="translate(959.8466023989286 707.97202764511) rotate(0 61.03680079862079 25)"><path d="M0 0 L122.07 0 L122.07 50 L0 50" stroke="none" stroke-width="0" fill="#164791"></path><path d="M0 0 C47.86 0, 95.72 0, 122.07 0 M0 0 C36.08 0, 72.16 0, 122.07 0 M122.07 0 C122.07 10.24, 122.07 20.48, 122.07 50 M122.07 0 C122.07 13.4, 122.07 26.8, 122.07 50 M122.07 50 C89.24 50, 56.4 50, 0 50 M122.07 50 C78.03 50, 33.99 50, 0 50 M0 50 C0 33, 0 15.99, 0 0 M0 50 C0 35.7, 0 21.4, 0 0" stroke="#164791" stroke-width="1" fill="none"></path></g><g transform="translate(964.8466023989286 713.3208281811088) rotate(0 55.36249923706055 19.651199464001138)"><text x="0" y="13.771560584371993" font-family="Virgil, Segoe UI Emoji" font-size="15.720959571200906px" fill="#ffffff" text-anchor="start" style="white-space: pre;" direction="ltr" dominant-baseline="alphabetic">Estimation</text><text x="0" y="33.42276004837312" font-family="Virgil, Segoe UI Emoji" font-size="15.720959571200906px" fill="#ffffff" text-anchor="start" style="white-space: pre;" direction="ltr" dominant-baseline="alphabetic">de compétence</text></g><g stroke-linecap="round" transform="translate(960.1493603352546 654.2685648668268) rotate(0 61.03680079862079 25)"><path d="M0 0 L122.07 0 L122.07 50 L0 50" stroke="none" stroke-width="0" fill="#164791"></path><path d="M0 0 C34.85 0, 69.69 0, 122.07 0 M0 0 C34.41 0, 68.83 0, 122.07 0 M122.07 0 C122.07 17.53, 122.07 35.07, 122.07 50 M122.07 0 C122.07 16.19, 122.07 32.38, 122.07 50 M122.07 50 C80.61 50, 39.15 50, 0 50 M122.07 50 C95.08 50, 68.09 50, 0 50 M0 50 C0 33.54, 0 17.08, 0 0 M0 50 C0 39.46, 0 28.93, 0 0" stroke="#164791" stroke-width="1" fill="none"></path></g><g transform="translate(965.1493603352546 659.6173654028256) rotate(0 38.724998474121094 19.651199464001138)"><text x="0" y="13.771560584371993" font-family="Virgil, Segoe UI Emoji" font-size="15.720959571200906px" fill="#ffffff" text-anchor="start" style="white-space: pre;" direction="ltr" dominant-baseline="alphabetic">Analyse </text><text x="0" y="33.42276004837312" font-family="Virgil, Segoe UI Emoji" font-size="15.720959571200906px" fill="#ffffff" text-anchor="start" style="white-space: pre;" direction="ltr" dominant-baseline="alphabetic">législative</text></g><g stroke-linecap="round" transform="translate(960.1493603352546 762.2810062960444) rotate(0 61.03680079862079 25)"><path d="M0 0 L122.07 0 L122.07 50 L0 50" stroke="none" stroke-width="0" fill="#164791"></path><path d="M0 0 C24.6 0, 49.2 0, 122.07 0 M0 0 C42.58 0, 85.16 0, 122.07 0 M122.07 0 C122.07 11.1, 122.07 22.2, 122.07 50 M122.07 0 C122.07 16.66, 122.07 33.32, 122.07 50 M122.07 50 C73.26 50, 24.44 50, 0 50 M122.07 50 C83.99 50, 45.9 50, 0 50 M0 50 C0 34.78, 0 19.56, 0 0 M0 50 C0 32.26, 0 14.52, 0 0" stroke="#164791" stroke-width="1" fill="none"></path></g><g transform="translate(965.1493603352546 767.6298068320433) rotate(0 53.349998474121094 19.651199464001138)"><text x="0" y="13.771560584371993" font-family="Virgil, Segoe UI Emoji" font-size="15.720959571200906px" fill="#ffffff" text-anchor="start" style="white-space: pre;" direction="ltr" dominant-baseline="alphabetic">Etude des </text><text x="0" y="33.42276004837312" font-family="Virgil, Segoe UI Emoji" font-size="15.720959571200906px" fill="#ffffff" text-anchor="start" style="white-space: pre;" direction="ltr" dominant-baseline="alphabetic">cycles projets</text></g><g stroke-linecap="round" transform="translate(960.4521182715798 818.7725476912277) rotate(0 61.03680079862079 25)"><path d="M0 0 L122.07 0 L122.07 50 L0 50" stroke="none" stroke-width="0" fill="#164791"></path><path d="M0 0 C45.58 0, 91.16 0, 122.07 0 M0 0 C48.11 0, 96.22 0, 122.07 0 M122.07 0 C122.07 13.83, 122.07 27.67, 122.07 50 M122.07 0 C122.07 19.21, 122.07 38.42, 122.07 50 M122.07 50 C76.62 50, 31.17 50, 0 50 M122.07 50 C89.2 50, 56.32 50, 0 50 M0 50 C0 35.52, 0 21.04, 0 0 M0 50 C0 35.18, 0 20.35, 0 0" stroke="#164791" stroke-width="1" fill="none"></path></g><g transform="translate(965.4521182715798 824.1213482272266) rotate(0 44.787498474121094 19.651199464001138)"><text x="0" y="13.771560584371993" font-family="Virgil, Segoe UI Emoji" font-size="15.720959571200906px" fill="#ffffff" text-anchor="start" style="white-space: pre;" direction="ltr" dominant-baseline="alphabetic">Recueil </text><text x="0" y="33.42276004837312" font-family="Virgil, Segoe UI Emoji" font-size="15.720959571200906px" fill="#ffffff" text-anchor="start" style="white-space: pre;" direction="ltr" dominant-baseline="alphabetic">utilisateurs</text></g><g stroke-linecap="round"><g transform="translate(397.2120097009356 766.2873397757611) rotate(0 120.47790228046279 62.6597062583329)"><path d="M0 0 C12.52 11, 34.98 45.13, 75.13 66.01 C115.29 86.9, 213.32 115.44, 240.96 125.32 M0 0 C12.52 11, 34.98 45.13, 75.13 66.01 C115.29 86.9, 213.32 115.44, 240.96 125.32" stroke="#1e1e1e" stroke-width="4" fill="none"></path></g><g transform="translate(397.2120097009356 766.2873397757611) rotate(0 120.47790228046279 62.6597062583329)"><path d="M240.96 125.32 L226.06 127.12 L230.01 115.07 L240.96 125.32" stroke="none" stroke-width="0" fill="#1e1e1e" fill-rule="evenodd"></path><path d="M240.96 125.32 C237.38 125.75, 233.81 126.18, 226.06 127.12 M240.96 125.32 C236.04 125.91, 231.12 126.51, 226.06 127.12 M226.06 127.12 C227.21 123.62, 228.35 120.12, 230.01 115.07 M226.06 127.12 C227.35 123.17, 228.65 119.23, 230.01 115.07 M230.01 115.07 C233.25 118.11, 236.5 121.14, 240.96 125.32 M230.01 115.07 C233.39 118.24, 236.78 121.41, 240.96 125.32 M240.96 125.32 C240.96 125.32, 240.96 125.32, 240.96 125.32 M240.96 125.32 C240.96 125.32, 240.96 125.32, 240.96 125.32" stroke="#1e1e1e" stroke-width="4" fill="none"></path></g></g><mask></mask><g stroke-linecap="round" transform="translate(10 10) rotate(0 582.8351395705026 512.2224273712582)"><path d="M32 0 C406.39 0, 780.78 0, 1133.67 0 M32 0 C288.54 0, 545.09 0, 1133.67 0 M1133.67 0 C1155 0, 1165.67 10.67, 1165.67 32 M1133.67 0 C1155 0, 1165.67 10.67, 1165.67 32 M1165.67 32 C1165.67 346.3, 1165.67 660.6, 1165.67 992.44 M1165.67 32 C1165.67 317.27, 1165.67 602.54, 1165.67 992.44 M1165.67 992.44 C1165.67 1013.78, 1155 1024.44, 1133.67 1024.44 M1165.67 992.44 C1165.67 1013.78, 1155 1024.44, 1133.67 1024.44 M1133.67 1024.44 C831.91 1024.44, 530.14 1024.44, 32 1024.44 M1133.67 1024.44 C776.59 1024.44, 419.51 1024.44, 32 1024.44 M32 1024.44 C10.67 1024.44, 0 1013.78, 0 992.44 M32 1024.44 C10.67 1024.44, 0 1013.78, 0 992.44 M0 992.44 C0 775.08, 0 557.72, 0 32 M0 992.44 C0 698.9, 0 405.36, 0 32 M0 32 C0 10.67, 10.67 0, 32 0 M0 32 C0 10.67, 10.67 0, 32 0" stroke="transparent" stroke-width="4" fill="none"></path></g><g stroke-linecap="round" transform="translate(955.4529273468997 648.9145335035747) rotate(0 66.93554409263561 113.94979530055798)"><path d="M0 0 C42.07 0, 84.15 0, 133.87 0 M0 0 C33.14 0, 66.29 0, 133.87 0 M133.87 0 C133.87 87.36, 133.87 174.72, 133.87 227.9 M133.87 0 C133.87 63.18, 133.87 126.37, 133.87 227.9 M133.87 227.9 C95.23 227.9, 56.59 227.9, 0 227.9 M133.87 227.9 C83.28 227.9, 32.68 227.9, 0 227.9 M0 227.9 C0 171.85, 0 115.81, 0 0 M0 227.9 C0 173.43, 0 118.96, 0 0" stroke="#164791" stroke-width="1" fill="none"></path></g></svg>