<svg version="1.1" xmlns="http://www.w3.org/2000/svg" viewBox="0 0 1331.9921638302847 751.5767218439584" width="1331.9921638302847" height="751.5767218439584">
  <!-- svg-source:excalidraw -->
  
  <rect x="0" y="0" width="1331.9921638302847" height="751.5767218439584" fill="#ffffff"></rect><g stroke-opacity="0.9" fill-opacity="0.9" stroke-linecap="round" transform="translate(10 10) rotate(0 655.9960819151423 365.7883609219792)"><path d="M0 0 L1311.99 0 L1311.99 731.58 L0 731.58" stroke="none" stroke-width="0" fill="#ffffff"></path><path d="M0 0 C515.72 0, 1031.43 0, 1311.99 0 M0 0 C511.35 0, 1022.7 0, 1311.99 0 M1311.99 0 C1311.99 225.06, 1311.99 450.11, 1311.99 731.58 M1311.99 0 C1311.99 213.1, 1311.99 426.2, 1311.99 731.58 M1311.99 731.58 C806.96 731.58, 301.92 731.58, 0 731.58 M1311.99 731.58 C891.6 731.58, 471.2 731.58, 0 731.58 M0 731.58 C0 575.93, 0 420.28, 0 0 M0 731.58 C0 561.73, 0 391.87, 0 0" stroke="transparent" stroke-width="2" fill="none"></path></g><g stroke-linecap="round" transform="translate(282.7418238448497 443.36477985182773) rotate(0 82.35400516795863 83.40310077519379)"><path d="M0 0 L164.71 0 L164.71 166.81 L0 166.81" stroke="none" stroke-width="0" fill="#1971c2"></path><path d="M0 0 C39.78 0, 79.55 0, 164.71 0 M0 0 C51.93 0, 103.86 0, 164.71 0 M164.71 0 C164.71 63.85, 164.71 127.71, 164.71 166.81 M164.71 0 C164.71 39.69, 164.71 79.38, 164.71 166.81 M164.71 166.81 C131.32 166.81, 97.94 166.81, 0 166.81 M164.71 166.81 C122.93 166.81, 81.15 166.81, 0 166.81 M0 166.81 C0 129.74, 0 92.68, 0 0 M0 166.81 C0 115.43, 0 64.05, 0 0" stroke="#1971c2" stroke-width="2" fill="none"></path></g><g transform="translate(335.3708286313386 513.6541855365822) rotate(0 29.725000381469727 13.113695090439279)"><text x="29.725000381469727" y="18.38015503875969" font-family="Virgil, Segoe UI Emoji" font-size="20.98191214470284px" fill="#ffffff" text-anchor="middle" style="white-space: pre;" direction="ltr" dominant-baseline="alphabetic">WCAG</text></g><g stroke-linecap="round" transform="translate(288.7910940162987 209.56301137455046) rotate(0 82.35400516795866 83.40310077519379)"><path d="M0 0 L164.71 0 L164.71 166.81 L0 166.81" stroke="none" stroke-width="0" fill="#1971c2"></path><path d="M0 0 C38.01 0, 76.02 0, 164.71 0 M0 0 C56.36 0, 112.73 0, 164.71 0 M164.71 0 C164.71 52.19, 164.71 104.39, 164.71 166.81 M164.71 0 C164.71 54.04, 164.71 108.08, 164.71 166.81 M164.71 166.81 C110.66 166.81, 56.61 166.81, 0 166.81 M164.71 166.81 C102.99 166.81, 41.27 166.81, 0 166.81 M0 166.81 C0 124.54, 0 82.28, 0 0 M0 166.81 C0 127.55, 0 88.29, 0 0" stroke="#1971c2" stroke-width="2" fill="none"></path></g><g transform="translate(305.79510071013624 279.85241705930497) rotate(0 65.3499984741211 13.113695090439279)"><text x="65.3499984741211" y="18.38015503875969" font-family="Virgil, Segoe UI Emoji" font-size="20.98191214470284px" fill="#ffffff" text-anchor="middle" style="white-space: pre;" direction="ltr" dominant-baseline="alphabetic">Participation</text></g><g stroke-linecap="round" transform="translate(479.97179800505637 443.36477985182773) rotate(0 82.35400516795863 83.40310077519379)"><path d="M0 0 L164.71 0 L164.71 166.81 L0 166.81" stroke="none" stroke-width="0" fill="#1971c2"></path><path d="M0 0 C50.5 0, 101.01 0, 164.71 0 M0 0 C39.62 0, 79.24 0, 164.71 0 M164.71 0 C164.71 47.07, 164.71 94.15, 164.71 166.81 M164.71 0 C164.71 35.08, 164.71 70.16, 164.71 166.81 M164.71 166.81 C108.23 166.81, 51.75 166.81, 0 166.81 M164.71 166.81 C120.47 166.81, 76.23 166.81, 0 166.81 M0 166.81 C0 121.01, 0 75.21, 0 0 M0 166.81 C0 123.67, 0 80.53, 0 0" stroke="#1971c2" stroke-width="2" fill="none"></path></g><g transform="translate(494.3133062247729 500.540490446143) rotate(0 68.01249694824219 26.227390180878558)"><text x="68.01249694824219" y="18.38015503875969" font-family="Virgil, Segoe UI Emoji" font-size="20.98191214470284px" fill="#ffffff" text-anchor="middle" style="white-space: pre;" direction="ltr" dominant-baseline="alphabetic">W3C </text><text x="68.01249694824219" y="44.60754521963824" font-family="Virgil, Segoe UI Emoji" font-size="20.98191214470284px" fill="#ffffff" text-anchor="middle" style="white-space: pre;" direction="ltr" dominant-baseline="alphabetic">sustainability</text></g><g stroke-linecap="round" transform="translate(486.0210681765054 209.56301137455046) rotate(0 82.35400516795863 83.40310077519379)"><path d="M0 0 L164.71 0 L164.71 166.81 L0 166.81" stroke="none" stroke-width="0" fill="#1971c2"></path><path d="M0 0 C46.98 0, 93.96 0, 164.71 0 M0 0 C51.61 0, 103.22 0, 164.71 0 M164.71 0 C164.71 51.39, 164.71 102.78, 164.71 166.81 M164.71 0 C164.71 55.26, 164.71 110.53, 164.71 166.81 M164.71 166.81 C114.71 166.81, 64.71 166.81, 0 166.81 M164.71 166.81 C111.18 166.81, 57.65 166.81, 0 166.81 M0 166.81 C0 105.88, 0 44.96, 0 0 M0 166.81 C0 108.45, 0 50.09, 0 0" stroke="#1971c2" stroke-width="2" fill="none"></path></g><g transform="translate(505.51257410740357 282.47515607739285) rotate(0 62.86249923706055 10.490956072351423)"><text x="62.86249923706055" y="14.70412403100775" font-family="Virgil, Segoe UI Emoji" font-size="16.785529715762273px" fill="#ffffff" text-anchor="middle" style="white-space: pre;" direction="ltr" dominant-baseline="alphabetic">Alphabétisation</text></g><g stroke-linecap="round" transform="translate(677.201772165263 443.36477985182773) rotate(0 82.35400516795863 83.40310077519379)"><path d="M0 0 L164.71 0 L164.71 166.81 L0 166.81" stroke="none" stroke-width="0" fill="#1971c2"></path><path d="M0 0 C34.75 0, 69.5 0, 164.71 0 M0 0 C44.59 0, 89.19 0, 164.71 0 M164.71 0 C164.71 34.92, 164.71 69.84, 164.71 166.81 M164.71 0 C164.71 53.55, 164.71 107.11, 164.71 166.81 M164.71 166.81 C106.09 166.81, 47.47 166.81, 0 166.81 M164.71 166.81 C123.04 166.81, 81.37 166.81, 0 166.81 M0 166.81 C0 128.74, 0 90.67, 0 0 M0 166.81 C0 101.05, 0 35.3, 0 0" stroke="#1971c2" stroke-width="2" fill="none"></path></g><g transform="translate(737.7932765702823 513.6541855365822) rotate(0 21.762500762939453 13.113695090439279)"><text x="21.762500762939453" y="18.38015503875969" font-family="Virgil, Segoe UI Emoji" font-size="20.98191214470284px" fill="#ffffff" text-anchor="middle" style="white-space: pre;" direction="ltr" dominant-baseline="alphabetic">RGS</text></g><g stroke-linecap="round" transform="translate(683.2510423367121 209.56301137455046) rotate(0 82.35400516795863 83.40310077519379)"><path d="M0 0 L164.71 0 L164.71 166.81 L0 166.81" stroke="none" stroke-width="0" fill="#1971c2"></path><path d="M0 0 C59.95 0, 119.9 0, 164.71 0 M0 0 C62.17 0, 124.33 0, 164.71 0 M164.71 0 C164.71 42.85, 164.71 85.7, 164.71 166.81 M164.71 0 C164.71 54.94, 164.71 109.88, 164.71 166.81 M164.71 166.81 C111.47 166.81, 58.23 166.81, 0 166.81 M164.71 166.81 C111.8 166.81, 58.88 166.81, 0 166.81 M0 166.81 C0 127.45, 0 88.1, 0 0 M0 166.81 C0 123.36, 0 79.91, 0 0" stroke="#1971c2" stroke-width="2" fill="none"></path></g><g transform="translate(735.6425478861405 266.73872196886566) rotate(0 29.962499618530273 26.227390180878544)"><text x="29.962499618530273" y="18.38015503875969" font-family="Virgil, Segoe UI Emoji" font-size="20.98191214470284px" fill="#ffffff" text-anchor="middle" style="white-space: pre;" direction="ltr" dominant-baseline="alphabetic">Cadre</text><text x="29.962499618530273" y="44.60754521963824" font-family="Virgil, Segoe UI Emoji" font-size="20.98191214470284px" fill="#ffffff" text-anchor="middle" style="white-space: pre;" direction="ltr" dominant-baseline="alphabetic">Légal</text></g><g stroke-linecap="round" transform="translate(872.3335551109996 443.36477985182773) rotate(0 82.35400516795863 83.40310077519379)"><path d="M0 0 L164.71 0 L164.71 166.81 L0 166.81" stroke="none" stroke-width="0" fill="#1971c2"></path><path d="M0 0 C59.8 0, 119.59 0, 164.71 0 M0 0 C57.6 0, 115.2 0, 164.71 0 M164.71 0 C164.71 65.14, 164.71 130.29, 164.71 166.81 M164.71 0 C164.71 63.94, 164.71 127.87, 164.71 166.81 M164.71 166.81 C101.08 166.81, 37.46 166.81, 0 166.81 M164.71 166.81 C103.79 166.81, 42.87 166.81, 0 166.81 M0 166.81 C0 119.67, 0 72.54, 0 0 M0 166.81 C0 132.22, 0 97.62, 0 0" stroke="#1971c2" stroke-width="2" fill="none"></path></g><g transform="translate(911.5875618048372 513.6541855365822) rotate(0 43.099998474121094 13.113695090439279)"><text x="43.099998474121094" y="18.38015503875969" font-family="Virgil, Segoe UI Emoji" font-size="20.98191214470284px" fill="#ffffff" text-anchor="middle" style="white-space: pre;" direction="ltr" dominant-baseline="alphabetic">Opquast</text></g><g stroke-linecap="round" transform="translate(878.3828252824485 209.56301137455046) rotate(0 82.35400516795869 83.40310077519379)"><path d="M0 0 L164.71 0 L164.71 166.81 L0 166.81" stroke="none" stroke-width="0" fill="#1971c2"></path><path d="M0 0 C45.68 0, 91.37 0, 164.71 0 M0 0 C63.58 0, 127.15 0, 164.71 0 M164.71 0 C164.71 34.24, 164.71 68.48, 164.71 166.81 M164.71 0 C164.71 44.27, 164.71 88.53, 164.71 166.81 M164.71 166.81 C114.27 166.81, 63.84 166.81, 0 166.81 M164.71 166.81 C103.95 166.81, 43.19 166.81, 0 166.81 M0 166.81 C0 117.61, 0 68.41, 0 0 M0 166.81 C0 101.2, 0 35.59, 0 0" stroke="#1971c2" stroke-width="2" fill="none"></path></g><g transform="translate(887.6368319762861 282.47515607739285) rotate(0 73.09999847412104 10.490956072351423)"><text x="73.0999984741211" y="14.70412403100775" font-family="Virgil, Segoe UI Emoji" font-size="16.785529715762273px" fill="#ffffff" text-anchor="middle" style="white-space: pre;" direction="ltr" dominant-baseline="alphabetic">Responsabilisation</text></g><g transform="translate(472.18894494057486 62.537404333554065) rotate(0 190.60755813953483 23.604651162790695)"><text x="0" y="33.08427906976743" font-family="Virgil, Segoe UI Emoji" font-size="37.76744186046511px" fill="#1e1e1e" text-anchor="start" style="white-space: pre;" direction="ltr" dominant-baseline="alphabetic">Critères d'inclusivité</text></g><g transform="translate(53.31693059236687 284.8757439858296) rotate(0 77.94780681915677 13.113695090439279)"><text x="0" y="18.38015503875969" font-family="Virgil, Segoe UI Emoji" font-size="20.98191214470284px" fill="#1e1e1e" text-anchor="start" style="white-space: pre;" direction="ltr" dominant-baseline="alphabetic">Cadre direction</text></g><g transform="translate(54.92451486291358 508.5676233014934) rotate(0 81.97370480875021 13.113695090439279)"><text x="0" y="18.38015503875969" font-family="Virgil, Segoe UI Emoji" font-size="20.98191214470284px" fill="#1e1e1e" text-anchor="start" style="white-space: pre;" direction="ltr" dominant-baseline="alphabetic">Cadre technique</text></g><g stroke-linecap="round"><g stroke-opacity="0.9" fill-opacity="0.9" transform="translate(273.824511183351 581.1346906658483) rotate(0 91.27131782945736 0)"><path d="M0 0 C39.28 0, 78.56 0, 182.54 0 M0 0 C37.17 0, 74.35 0, 182.54 0" stroke="#1e1e1e" stroke-width="2" fill="none"></path></g></g><mask></mask><g stroke-linecap="round"><g stroke-opacity="0.9" fill-opacity="0.9" transform="translate(279.8737813548 347.33292218857116) rotate(0 91.27131782945733 0)"><path d="M0 0 C56.24 0, 112.48 0, 182.54 0 M0 0 C60.48 0, 120.95 0, 182.54 0" stroke="#1e1e1e" stroke-width="2" fill="none"></path></g></g><mask></mask><g stroke-linecap="round"><g stroke-opacity="0.9" fill-opacity="0.9" transform="translate(471.05448534355764 562.2509697356157) rotate(0 91.27131782945736 0)"><path d="M0 0 C59.45 0, 118.9 0, 182.54 0 M0 0 C50.08 0, 100.16 0, 182.54 0" stroke="#1e1e1e" stroke-width="2" fill="none"></path></g></g><mask></mask><g stroke-linecap="round"><g stroke-opacity="0.9" fill-opacity="0.9" transform="translate(477.1037555150067 328.4492012583386) rotate(0 91.27131782945736 0)"><path d="M0 0 C43.08 0, 86.16 0, 182.54 0 M0 0 C54.26 0, 108.53 0, 182.54 0" stroke="#1e1e1e" stroke-width="2" fill="none"></path></g></g><mask></mask><g stroke-linecap="round"><g stroke-opacity="0.9" fill-opacity="0.9" transform="translate(668.2844595037644 583.2328818803186) rotate(0 91.27131782945736 0)"><path d="M0 0 C44.61 0, 89.22 0, 182.54 0 M0 0 C51.81 0, 103.63 0, 182.54 0" stroke="#1e1e1e" stroke-width="2" fill="none"></path></g></g><mask></mask><g stroke-linecap="round"><g stroke-opacity="0.9" fill-opacity="0.9" transform="translate(674.3337296752134 349.4311134030414) rotate(0 91.27131782945736 0)"><path d="M0 0 C46.89 0, 93.79 0, 182.54 0 M0 0 C60.12 0, 120.24 0, 182.54 0" stroke="#1e1e1e" stroke-width="2" fill="none"></path></g></g><mask></mask><g stroke-linecap="round"><g stroke-opacity="0.9" fill-opacity="0.9" transform="translate(863.4162424495008 550.7109180560292) rotate(0 91.27131782945736 0)"><path d="M0 0 C50.22 0, 100.45 0, 182.54 0 M0 0 C51.38 0, 102.77 0, 182.54 0" stroke="#1e1e1e" stroke-width="2" fill="none"></path></g></g><mask></mask><g stroke-linecap="round"><g stroke-opacity="0.9" fill-opacity="0.9" transform="translate(869.4655126209498 328.75364531449156) rotate(0 91.27131782945742 0)"><path d="M0 0 C47.71 0, 95.41 0, 182.54 0 M0 0 C47.13 0, 94.26 0, 182.54 0" stroke="#1e1e1e" stroke-width="2" fill="none"></path></g></g><mask></mask><g stroke-opacity="0.9" fill-opacity="0.9" transform="translate(318.81759983904453 415.86968570446555) rotate(0 46.27822917376375 10.490956072351423)"><text x="0" y="14.70412403100775" font-family="Virgil, Segoe UI Emoji" font-size="16.785529715762273px" fill="#1e1e1e" text-anchor="start" style="white-space: pre;" direction="ltr" dominant-baseline="alphabetic">10 Critères</text></g><g stroke-opacity="0.9" fill-opacity="0.9" transform="translate(324.8668700104935 182.06791722718833) rotate(0 44.66524627843259 10.49095607235142)"><text x="0" y="14.70412403100775" font-family="Virgil, Segoe UI Emoji" font-size="16.785529715762273px" fill="#1e1e1e" text-anchor="start" style="white-space: pre;" direction="ltr" dominant-baseline="alphabetic">8 Critères</text></g><g stroke-opacity="0.9" fill-opacity="0.9" transform="translate(516.6245757828342 415.86968570446555) rotate(0 45.70122739018086 10.490956072351423)"><text x="0" y="14.70412403100775" font-family="Virgil, Segoe UI Emoji" font-size="16.785529715762273px" fill="#1e1e1e" text-anchor="start" style="white-space: pre;" direction="ltr" dominant-baseline="alphabetic">15 Critères</text></g><g stroke-opacity="0.9" fill-opacity="0.9" transform="translate(522.6738459542831 182.06791722718833) rotate(0 45.70122739018086 10.49095607235142)"><text x="0" y="14.70412403100775" font-family="Virgil, Segoe UI Emoji" font-size="16.785529715762273px" fill="#1e1e1e" text-anchor="start" style="white-space: pre;" direction="ltr" dominant-baseline="alphabetic">15 Critères</text></g><g stroke-opacity="0.9" fill-opacity="0.9" transform="translate(715.3363958874677 415.86968570446555) rotate(0 44.219381445754095 10.490956072351423)"><text x="0" y="14.70412403100775" font-family="Virgil, Segoe UI Emoji" font-size="16.785529715762273px" fill="#1e1e1e" text-anchor="start" style="white-space: pre;" direction="ltr" dominant-baseline="alphabetic">2 Critères</text></g><g stroke-opacity="0.9" fill-opacity="0.9" transform="translate(721.3856660589166 182.06791722718833) rotate(0 44.219381445754095 10.49095607235142)"><text x="0" y="14.70412403100775" font-family="Virgil, Segoe UI Emoji" font-size="16.785529715762273px" fill="#1e1e1e" text-anchor="start" style="white-space: pre;" direction="ltr" dominant-baseline="alphabetic">2 Critères</text></g><g stroke-opacity="0.9" fill-opacity="0.9" transform="translate(904.9604268952195 415.86968570446555) rotate(0 49.72713338373859 10.490956072351423)"><text x="0" y="14.70412403100775" font-family="Virgil, Segoe UI Emoji" font-size="16.785529715762273px" fill="#1e1e1e" text-anchor="start" style="white-space: pre;" direction="ltr" dominant-baseline="alphabetic">30 Critères</text></g><g stroke-opacity="0.9" fill-opacity="0.9" transform="translate(911.0096970666684 182.06791722718833) rotate(0 46.488049095607266 10.49095607235142)"><text x="0" y="14.70412403100775" font-family="Virgil, Segoe UI Emoji" font-size="16.785529715762273px" fill="#1e1e1e" text-anchor="start" style="white-space: pre;" direction="ltr" dominant-baseline="alphabetic">12 Critères</text></g></svg>