<svg version="1.1" xmlns="http://www.w3.org/2000/svg" viewBox="0 0 927.765712314399 547.187683282247" width="2783.297136943197" height="1641.563049846741">
  <!-- svg-source:excalidraw -->
  
  
  <g stroke-linecap="round" transform="translate(64.60471237690399 182.45142520552236) rotate(0 91.54319427892824 50)"><path d="M0 0 L183.09 0 L183.09 100 L0 100" stroke="none" stroke-width="0" fill="#164791"></path><path d="M0 0 C45.53 0, 91.05 0, 183.09 0 M0 0 C57.68 0, 115.35 0, 183.09 0 M183.09 0 C183.09 23.36, 183.09 46.72, 183.09 100 M183.09 0 C183.09 33.29, 183.09 66.58, 183.09 100 M183.09 100 C129.77 100, 76.44 100, 0 100 M183.09 100 C141.35 100, 99.61 100, 0 100 M0 100 C0 65.27, 0 30.54, 0 0 M0 100 C0 77.26, 0 54.52, 0 0" stroke="#1e1e1e" stroke-width="2" fill="none"></path></g><g transform="translate(94.18540512995332 187.45142520552236) rotate(0 61.962501525878906 45)"><text x="61.962501525878906" y="31.536" font-family="Virgil, Segoe UI Emoji" font-size="36px" fill="#ffffff" text-anchor="middle" style="white-space: pre;" direction="ltr" dominant-baseline="alphabetic">ONG</text><text x="61.962501525878906" y="76.536" font-family="Virgil, Segoe UI Emoji" font-size="36px" fill="#ffffff" text-anchor="middle" style="white-space: pre;" direction="ltr" dominant-baseline="alphabetic">Finance</text></g><g stroke-linecap="round" transform="translate(672.0445066183283 184.42132044421282) rotate(0 91.54319427892824 50)"><path d="M0 0 L183.09 0 L183.09 100 L0 100" stroke="none" stroke-width="0" fill="#164791"></path><path d="M0 0 C49.92 0, 99.83 0, 183.09 0 M0 0 C42.99 0, 85.99 0, 183.09 0 M183.09 0 C183.09 39.61, 183.09 79.21, 183.09 100 M183.09 0 C183.09 33.01, 183.09 66.02, 183.09 100 M183.09 100 C114.68 100, 46.27 100, 0 100 M183.09 100 C144.86 100, 106.62 100, 0 100 M0 100 C0 69.75, 0 39.49, 0 0 M0 100 C0 71.71, 0 43.42, 0 0" stroke="#1e1e1e" stroke-width="2" fill="none"></path></g><g transform="translate(689.1876993713777 189.42132044421282) rotate(0 74.4000015258789 45)"><text x="74.4000015258789" y="31.536" font-family="Virgil, Segoe UI Emoji" font-size="36px" fill="#ffffff" text-anchor="middle" style="white-space: pre;" direction="ltr" dominant-baseline="alphabetic">ONG</text><text x="74.4000015258789" y="76.536" font-family="Virgil, Segoe UI Emoji" font-size="36px" fill="#ffffff" text-anchor="middle" style="white-space: pre;" direction="ltr" dominant-baseline="alphabetic">Handicap</text></g><g stroke-linecap="round" transform="translate(10 437.18768328224695) rotate(0 139.72382284678497 50)"><path d="M0 0 L279.45 0 L279.45 100 L0 100" stroke="none" stroke-width="0" fill="#ffffff"></path><path d="M0 0 C110.64 0, 221.28 0, 279.45 0 M0 0 C57.4 0, 114.79 0, 279.45 0 M279.45 0 C279.45 22.65, 279.45 45.3, 279.45 100 M279.45 0 C279.45 34.07, 279.45 68.14, 279.45 100 M279.45 100 C172.12 100, 64.8 100, 0 100 M279.45 100 C219.67 100, 159.9 100, 0 100 M0 100 C0 79.97, 0 59.94, 0 0 M0 100 C0 60.08, 0 20.16, 0 0" stroke="#1e1e1e" stroke-width="2" fill="none"></path></g><g transform="translate(73.67381979502716 442.18768328224695) rotate(0 76.05000305175781 45)"><text x="76.05000305175781" y="31.536" font-family="Virgil, Segoe UI Emoji" font-size="36px" fill="#1e1e1e" text-anchor="middle" style="white-space: pre;" direction="ltr" dominant-baseline="alphabetic">Accès </text><text x="76.05000305175781" y="76.536" font-family="Virgil, Segoe UI Emoji" font-size="36px" fill="#1e1e1e" text-anchor="middle" style="white-space: pre;" direction="ltr" dominant-baseline="alphabetic">Bancaire</text></g><g stroke-linecap="round" transform="translate(638.3180666208291 437.18768328224695) rotate(0 139.72382284678497 50)"><path d="M0 0 L279.45 0 L279.45 100 L0 100" stroke="none" stroke-width="0" fill="#ffffff"></path><path d="M0 0 C81.14 0, 162.28 0, 279.45 0 M0 0 C107.09 0, 214.19 0, 279.45 0 M279.45 0 C279.45 29.87, 279.45 59.74, 279.45 100 M279.45 0 C279.45 27.66, 279.45 55.33, 279.45 100 M279.45 100 C191.74 100, 104.03 100, 0 100 M279.45 100 C195.63 100, 111.81 100, 0 100 M0 100 C0 62.61, 0 25.23, 0 0 M0 100 C0 77.89, 0 55.78, 0 0" stroke="#1e1e1e" stroke-width="2" fill="none"></path></g><g transform="translate(694.104389467614 442.18768328224695) rotate(0 83.9375 45)"><text x="83.9375" y="31.536" font-family="Virgil, Segoe UI Emoji" font-size="36px" fill="#1e1e1e" text-anchor="middle" style="white-space: pre;" direction="ltr" dominant-baseline="alphabetic">Accès</text><text x="83.9375" y="76.536" font-family="Virgil, Segoe UI Emoji" font-size="36px" fill="#1e1e1e" text-anchor="middle" style="white-space: pre;" direction="ltr" dominant-baseline="alphabetic">Formation</text></g><g stroke-linecap="round" transform="translate(317.8416247413079 437.18768328224695) rotate(0 139.72382284678497 50)"><path d="M0 0 L279.45 0 L279.45 100 L0 100" stroke="none" stroke-width="0" fill="#ffffff"></path><path d="M0 0 C71.57 0, 143.13 0, 279.45 0 M0 0 C111.13 0, 222.26 0, 279.45 0 M279.45 0 C279.45 23.12, 279.45 46.24, 279.45 100 M279.45 0 C279.45 32.65, 279.45 65.29, 279.45 100 M279.45 100 C183.65 100, 87.86 100, 0 100 M279.45 100 C183.37 100, 87.3 100, 0 100 M0 100 C0 76.02, 0 52.04, 0 0 M0 100 C0 76.83, 0 53.66, 0 0" stroke="#1e1e1e" stroke-width="2" fill="none"></path></g><g transform="translate(405.7029483510323 442.18768328224695) rotate(0 51.86249923706055 45)"><text x="51.86249923706055" y="31.536" font-family="Virgil, Segoe UI Emoji" font-size="36px" fill="#1e1e1e" text-anchor="middle" style="white-space: pre;" direction="ltr" dominant-baseline="alphabetic">Accès</text><text x="51.86249923706055" y="76.536" font-family="Virgil, Segoe UI Emoji" font-size="36px" fill="#1e1e1e" text-anchor="middle" style="white-space: pre;" direction="ltr" dominant-baseline="alphabetic">Emploi</text></g><g stroke-linecap="round"><g transform="translate(150.2127652607187 298.8520646204072) rotate(0 0 63.501424463422765)"><path d="M0 0 C0 39.45, 0 78.91, 0 127 M0 0 C0 28.87, 0 57.74, 0 127" stroke="#164791" stroke-width="2" fill="none"></path></g></g><mask></mask><g stroke-linecap="round"><g transform="translate(768.2234343995478 307.82772396964583) rotate(0 0 50.756271689246205)"><path d="M0 0 C0 39.78, 0 79.56, 0 101.51 M0 0 C0 31.25, 0 62.5, 0 101.51" stroke="#164791" stroke-width="2" fill="none"></path></g></g><mask></mask><g stroke-linecap="round"><g transform="translate(766.9248106626283 410.5064000385982) rotate(0 -275.57910748129825 1.9405651840997962e-7)"><path d="M0 0 C-121.57 0, -243.14 0, -551.16 0 M0 0 C-141.87 0, -283.73 0, -551.16 0" stroke="#164791" stroke-width="2" fill="none"></path></g></g><mask></mask><g stroke-linecap="round"><g transform="translate(215.37941622240487 410.999002971822) rotate(0 0 9.500000245445136)"><path d="M0 0 C0 3.98, 0 7.96, 0 19 M0 0 C0 6.89, 0 13.77, 0 19" stroke="#164791" stroke-width="2" fill="none"></path></g></g><mask></mask><g stroke-linecap="round"><g transform="translate(453.56741904064893 411.108412104139) rotate(0 0 9.500000245445136)"><path d="M0 0 C0 5.75, 0 11.5, 0 19 M0 0 C0 6.21, 0 12.42, 0 19" stroke="#164791" stroke-width="2" fill="none"></path></g></g><mask></mask><g stroke-linecap="round"><g transform="translate(768.100792065813 410.2335489331978) rotate(0 0 9.500000245445136)"><path d="M0 0 C0 7.41, 0 14.81, 0 19 M0 0 C0 6.61, 0 13.22, 0 19" stroke="#164791" stroke-width="2" fill="none"></path></g></g><mask></mask><g transform="translate(246.34894241384245 10) rotate(0 227.25 45)"><text x="227.25" y="31.536" font-family="Virgil, Segoe UI Emoji" font-size="36px" fill="#1e1e1e" text-anchor="middle" style="white-space: pre;" direction="ltr" dominant-baseline="alphabetic">Intervention</text><text x="227.25" y="76.536" font-family="Virgil, Segoe UI Emoji" font-size="36px" fill="#1e1e1e" text-anchor="middle" style="white-space: pre;" direction="ltr" dominant-baseline="alphabetic"> sur les sujets d'inclusion</text></g></svg>